<?xml version="1.0" encoding="utf-8" standalone="no"?>
<!DOCTYPE svg PUBLIC "-//W3C//DTD SVG 1.1//EN"
  "http://www.w3.org/Graphics/SVG/1.1/DTD/svg11.dtd">
<svg xmlns:xlink="http://www.w3.org/1999/xlink" width="460.8pt" height="345.6pt" viewBox="0 0 460.8 345.6" xmlns="http://www.w3.org/2000/svg" version="1.1">
 <metadata>
  <rdf:RDF xmlns:dc="http://purl.org/dc/elements/1.1/" xmlns:cc="http://creativecommons.org/ns#" xmlns:rdf="http://www.w3.org/1999/02/22-rdf-syntax-ns#">
   <cc:Work>
    <dc:type rdf:resource="http://purl.org/dc/dcmitype/StillImage"/>
    <dc:date>2024-03-19T06:11:35.182511</dc:date>
    <dc:format>image/svg+xml</dc:format>
    <dc:creator>
     <cc:Agent>
      <dc:title>Matplotlib v3.6.2, https://matplotlib.org/</dc:title>
     </cc:Agent>
    </dc:creator>
   </cc:Work>
  </rdf:RDF>
 </metadata>
 <defs>
  <style type="text/css">*{stroke-linejoin: round; stroke-linecap: butt}</style>
 </defs>
 <g id="figure_1">
  <g id="patch_1">
   <path d="M 0 345.6 
L 460.8 345.6 
L 460.8 0 
L 0 0 
z
" style="fill: #ffffff"/>
  </g>
  <g id="axes_1">
   <g id="patch_2">
    <path d="M 57.6 307.584 
L 414.72 307.584 
L 414.72 41.472 
L 57.6 41.472 
z
" style="fill: #eaeaf1"/>
   </g>
   <g id="matplotlib.axis_1">
    <g id="xtick_1">
     <g id="line2d_1">
      <path d="M 93.713258 307.584 
L 93.713258 41.472 
" clip-path="url(#p7c7fce5992)" style="fill: none; stroke-dasharray: 2.96,1.28; stroke-dashoffset: 0; stroke: #ffffff; stroke-width: 0.8"/>
     </g>
     <g id="text_1">
      <!-- 100 -->
      <g transform="translate(83.213258 320.654312) scale(0.14 -0.14)">
       <defs>
        <path id="SimHei-31" d="M 1950 100 
L 1375 100 
L 1375 3425 
L 625 3425 
L 625 3725 
Q 1075 3725 1325 3900 
Q 1575 4075 1650 4425 
L 1950 4425 
L 1950 100 
z
" transform="scale(0.015625)"/>
        <path id="SimHei-30" d="M 2975 2250 
Q 2975 1350 2650 700 
Q 2325 50 1600 50 
Q 875 50 537 700 
Q 200 1350 200 2250 
Q 200 3150 537 3787 
Q 875 4425 1600 4425 
Q 2325 4425 2650 3787 
Q 2975 3150 2975 2250 
z
M 2375 2250 
Q 2375 3050 2187 3500 
Q 2000 3950 1600 3950 
Q 1200 3950 1000 3500 
Q 800 3050 800 2250 
Q 800 1450 1000 987 
Q 1200 525 1600 525 
Q 2000 525 2187 987 
Q 2375 1450 2375 2250 
z
" transform="scale(0.015625)"/>
       </defs>
       <use xlink:href="#SimHei-31"/>
       <use xlink:href="#SimHei-30" x="50"/>
       <use xlink:href="#SimHei-30" x="100"/>
      </g>
     </g>
    </g>
    <g id="xtick_2">
     <g id="line2d_2">
      <path d="M 133.839101 307.584 
L 133.839101 41.472 
" clip-path="url(#p7c7fce5992)" style="fill: none; stroke-dasharray: 2.96,1.28; stroke-dashoffset: 0; stroke: #ffffff; stroke-width: 0.8"/>
     </g>
     <g id="text_2">
      <!-- 200 -->
      <g transform="translate(123.339101 320.654312) scale(0.14 -0.14)">
       <defs>
        <path id="SimHei-32" d="M 2850 100 
L 300 100 
L 300 500 
Q 450 900 712 1237 
Q 975 1575 1475 2000 
Q 1850 2325 2012 2600 
Q 2175 2875 2175 3200 
Q 2175 3525 2037 3737 
Q 1900 3950 1600 3950 
Q 1350 3950 1162 3725 
Q 975 3500 975 2925 
L 400 2925 
Q 425 3650 737 4037 
Q 1050 4425 1625 4425 
Q 2175 4425 2475 4087 
Q 2775 3750 2775 3175 
Q 2775 2700 2500 2350 
Q 2225 2000 1825 1650 
Q 1375 1250 1200 1050 
Q 1025 850 875 575 
L 2850 575 
L 2850 100 
z
" transform="scale(0.015625)"/>
       </defs>
       <use xlink:href="#SimHei-32"/>
       <use xlink:href="#SimHei-30" x="50"/>
       <use xlink:href="#SimHei-30" x="100"/>
      </g>
     </g>
    </g>
    <g id="xtick_3">
     <g id="line2d_3">
      <path d="M 173.964944 307.584 
L 173.964944 41.472 
" clip-path="url(#p7c7fce5992)" style="fill: none; stroke-dasharray: 2.96,1.28; stroke-dashoffset: 0; stroke: #ffffff; stroke-width: 0.8"/>
     </g>
     <g id="text_3">
      <!-- 300 -->
      <g transform="translate(163.464944 320.654312) scale(0.14 -0.14)">
       <defs>
        <path id="SimHei-33" d="M 2825 1300 
Q 2825 725 2462 387 
Q 2100 50 1550 50 
Q 1000 50 637 387 
Q 275 725 275 1425 
L 850 1425 
Q 850 950 1037 737 
Q 1225 525 1550 525 
Q 1875 525 2050 725 
Q 2225 925 2225 1350 
Q 2225 1700 2037 1900 
Q 1850 2100 1375 2100 
L 1375 2525 
Q 1775 2525 1962 2725 
Q 2150 2925 2150 3325 
Q 2150 3625 2012 3800 
Q 1875 3975 1575 3975 
Q 1275 3975 1112 3762 
Q 950 3550 925 3150 
L 375 3150 
Q 425 3725 737 4075 
Q 1050 4425 1575 4425 
Q 2125 4425 2425 4112 
Q 2725 3800 2725 3350 
Q 2725 2925 2575 2687 
Q 2425 2450 2075 2325 
Q 2425 2250 2625 1975 
Q 2825 1700 2825 1300 
z
" transform="scale(0.015625)"/>
       </defs>
       <use xlink:href="#SimHei-33"/>
       <use xlink:href="#SimHei-30" x="50"/>
       <use xlink:href="#SimHei-30" x="100"/>
      </g>
     </g>
    </g>
    <g id="xtick_4">
     <g id="line2d_4">
      <path d="M 214.090787 307.584 
L 214.090787 41.472 
" clip-path="url(#p7c7fce5992)" style="fill: none; stroke-dasharray: 2.96,1.28; stroke-dashoffset: 0; stroke: #ffffff; stroke-width: 0.8"/>
     </g>
     <g id="text_4">
      <!-- 400 -->
      <g transform="translate(203.590787 320.654312) scale(0.14 -0.14)">
       <defs>
        <path id="SimHei-34" d="M 2975 1200 
L 2450 1200 
L 2450 100 
L 1875 100 
L 1875 1200 
L 200 1200 
L 200 1675 
L 1875 4425 
L 2450 4425 
L 2450 1675 
L 2975 1675 
L 2975 1200 
z
M 1875 1675 
L 1875 3525 
L 750 1675 
L 1875 1675 
z
" transform="scale(0.015625)"/>
       </defs>
       <use xlink:href="#SimHei-34"/>
       <use xlink:href="#SimHei-30" x="50"/>
       <use xlink:href="#SimHei-30" x="100"/>
      </g>
     </g>
    </g>
    <g id="xtick_5">
     <g id="line2d_5">
      <path d="M 254.216629 307.584 
L 254.216629 41.472 
" clip-path="url(#p7c7fce5992)" style="fill: none; stroke-dasharray: 2.96,1.28; stroke-dashoffset: 0; stroke: #ffffff; stroke-width: 0.8"/>
     </g>
     <g id="text_5">
      <!-- 500 -->
      <g transform="translate(243.716629 320.654312) scale(0.14 -0.14)">
       <defs>
        <path id="SimHei-35" d="M 2825 1650 
Q 2825 900 2462 475 
Q 2100 50 1500 50 
Q 975 50 637 400 
Q 300 750 275 1350 
L 850 1350 
Q 850 975 1025 750 
Q 1200 525 1525 525 
Q 1850 525 2037 800 
Q 2225 1075 2225 1650 
Q 2225 2150 2062 2387 
Q 1900 2625 1625 2625 
Q 1400 2625 1237 2525 
Q 1075 2425 925 2175 
L 425 2175 
L 575 4375 
L 2725 4375 
L 2725 3900 
L 1050 3900 
L 950 2750 
Q 1100 2900 1275 2975 
Q 1450 3050 1750 3050 
Q 2225 3050 2525 2687 
Q 2825 2325 2825 1650 
z
" transform="scale(0.015625)"/>
       </defs>
       <use xlink:href="#SimHei-35"/>
       <use xlink:href="#SimHei-30" x="50"/>
       <use xlink:href="#SimHei-30" x="100"/>
      </g>
     </g>
    </g>
    <g id="xtick_6">
     <g id="line2d_6">
      <path d="M 294.342472 307.584 
L 294.342472 41.472 
" clip-path="url(#p7c7fce5992)" style="fill: none; stroke-dasharray: 2.96,1.28; stroke-dashoffset: 0; stroke: #ffffff; stroke-width: 0.8"/>
     </g>
     <g id="text_6">
      <!-- 600 -->
      <g transform="translate(283.842472 320.654312) scale(0.14 -0.14)">
       <defs>
        <path id="SimHei-36" d="M 2850 1550 
Q 2850 850 2550 450 
Q 2250 50 1650 50 
Q 1050 50 700 550 
Q 350 1050 350 2175 
Q 350 3200 712 3812 
Q 1075 4425 1750 4425 
Q 2225 4425 2512 4075 
Q 2800 3725 2800 3300 
L 2225 3300 
Q 2225 3550 2087 3750 
Q 1950 3950 1725 3950 
Q 1350 3950 1150 3562 
Q 950 3175 925 2375 
Q 1100 2700 1300 2825 
Q 1500 2950 1775 2950 
Q 2250 2950 2550 2575 
Q 2850 2200 2850 1550 
z
M 2250 1550 
Q 2250 2000 2100 2250 
Q 1950 2500 1675 2500 
Q 1350 2500 1162 2250 
Q 975 2000 975 1650 
Q 975 1100 1162 800 
Q 1350 500 1675 500 
Q 1900 500 2075 725 
Q 2250 950 2250 1550 
z
" transform="scale(0.015625)"/>
       </defs>
       <use xlink:href="#SimHei-36"/>
       <use xlink:href="#SimHei-30" x="50"/>
       <use xlink:href="#SimHei-30" x="100"/>
      </g>
     </g>
    </g>
    <g id="xtick_7">
     <g id="line2d_7">
      <path d="M 334.468315 307.584 
L 334.468315 41.472 
" clip-path="url(#p7c7fce5992)" style="fill: none; stroke-dasharray: 2.96,1.28; stroke-dashoffset: 0; stroke: #ffffff; stroke-width: 0.8"/>
     </g>
     <g id="text_7">
      <!-- 700 -->
      <g transform="translate(323.968315 320.654312) scale(0.14 -0.14)">
       <defs>
        <path id="SimHei-37" d="M 2775 3850 
L 1600 100 
L 1025 100 
L 2225 3900 
L 400 3900 
L 400 4375 
L 2775 4375 
L 2775 3850 
z
" transform="scale(0.015625)"/>
       </defs>
       <use xlink:href="#SimHei-37"/>
       <use xlink:href="#SimHei-30" x="50"/>
       <use xlink:href="#SimHei-30" x="100"/>
      </g>
     </g>
    </g>
    <g id="xtick_8">
     <g id="line2d_8">
      <path d="M 374.594157 307.584 
L 374.594157 41.472 
" clip-path="url(#p7c7fce5992)" style="fill: none; stroke-dasharray: 2.96,1.28; stroke-dashoffset: 0; stroke: #ffffff; stroke-width: 0.8"/>
     </g>
     <g id="text_8">
      <!-- 800 -->
      <g transform="translate(364.094157 320.654312) scale(0.14 -0.14)">
       <defs>
        <path id="SimHei-38" d="M 2875 1325 
Q 2875 700 2525 375 
Q 2175 50 1575 50 
Q 975 50 625 375 
Q 275 700 275 1325 
Q 275 1650 475 1912 
Q 675 2175 1025 2300 
Q 725 2425 562 2650 
Q 400 2875 400 3225 
Q 400 3775 750 4100 
Q 1100 4425 1575 4425 
Q 2050 4425 2400 4100 
Q 2750 3775 2750 3225 
Q 2750 2875 2587 2650 
Q 2425 2425 2125 2300 
Q 2475 2175 2675 1912 
Q 2875 1650 2875 1325 
z
M 2200 3225 
Q 2200 3625 2025 3800 
Q 1850 3975 1575 3975 
Q 1300 3975 1125 3800 
Q 950 3625 950 3225 
Q 950 2825 1137 2662 
Q 1325 2500 1575 2500 
Q 1825 2500 2012 2662 
Q 2200 2825 2200 3225 
z
M 2300 1325 
Q 2300 1675 2112 1875 
Q 1925 2075 1575 2075 
Q 1225 2075 1037 1875 
Q 850 1675 850 1325 
Q 850 925 1050 712 
Q 1250 500 1575 500 
Q 1900 500 2100 712 
Q 2300 925 2300 1325 
z
" transform="scale(0.015625)"/>
       </defs>
       <use xlink:href="#SimHei-38"/>
       <use xlink:href="#SimHei-30" x="50"/>
       <use xlink:href="#SimHei-30" x="100"/>
      </g>
     </g>
    </g>
    <g id="xtick_9">
     <g id="line2d_9">
      <path d="M 414.72 307.584 
L 414.72 41.472 
" clip-path="url(#p7c7fce5992)" style="fill: none; stroke-dasharray: 2.96,1.28; stroke-dashoffset: 0; stroke: #ffffff; stroke-width: 0.8"/>
     </g>
     <g id="text_9">
      <!-- 900 -->
      <g transform="translate(404.22 320.654312) scale(0.14 -0.14)">
       <defs>
        <path id="SimHei-39" d="M 2825 2300 
Q 2825 1275 2462 662 
Q 2100 50 1425 50 
Q 950 50 662 400 
Q 375 750 375 1175 
L 950 1175 
Q 950 925 1087 725 
Q 1225 525 1450 525 
Q 1825 525 2012 950 
Q 2200 1375 2250 2200 
Q 2125 1925 1900 1775 
Q 1675 1625 1400 1625 
Q 925 1625 625 1975 
Q 325 2325 325 2975 
Q 325 3625 625 4025 
Q 925 4425 1525 4425 
Q 2125 4425 2475 3925 
Q 2825 3425 2825 2300 
z
M 2200 2875 
Q 2200 3425 2012 3700 
Q 1825 3975 1500 3975 
Q 1275 3975 1100 3762 
Q 925 3550 925 2975 
Q 925 2550 1062 2312 
Q 1200 2075 1500 2075 
Q 1825 2075 2012 2300 
Q 2200 2525 2200 2875 
z
" transform="scale(0.015625)"/>
       </defs>
       <use xlink:href="#SimHei-39"/>
       <use xlink:href="#SimHei-30" x="50"/>
       <use xlink:href="#SimHei-30" x="100"/>
      </g>
     </g>
    </g>
    <g id="text_10">
     <!-- 吞吐量(tps) -->
     <g style="fill: #262626" transform="translate(197.66 337.560563) scale(0.14 -0.14)">
      <defs>
       <path id="SimHei-541e" d="M 3050 3200 
Q 2650 2400 1950 1875 
L 4700 1875 
Q 4000 2250 3550 3200 
L 3050 3200 
z
M 2075 1450 
L 2075 375 
L 4425 375 
L 4425 1450 
L 2075 1450 
z
M 1175 4925 
Q 1575 4900 2025 4900 
L 4400 4900 
Q 4775 4900 5200 4925 
L 5200 4450 
Q 4775 4475 4400 4475 
L 3300 4475 
Q 3275 4075 3175 3625 
L 4925 3625 
Q 5400 3625 5800 3650 
L 5800 3175 
Q 5425 3200 4925 3200 
L 4050 3200 
Q 4175 2850 4637 2475 
Q 5100 2100 6125 1950 
Q 5925 1775 5825 1425 
Q 5500 1475 4925 1775 
Q 4900 1450 4900 662 
Q 4900 -125 4925 -525 
L 4425 -525 
L 4425 -50 
L 2075 -50 
L 2075 -550 
L 1575 -550 
Q 1600 -175 1600 562 
Q 1600 1300 1600 1600 
Q 1175 1350 800 1175 
Q 725 1400 375 1625 
Q 800 1725 1437 2100 
Q 2075 2475 2525 3200 
L 1350 3200 
Q 975 3200 575 3175 
L 575 3650 
Q 975 3625 1350 3625 
L 2675 3625 
Q 2775 4050 2800 4475 
L 2050 4475 
Q 1575 4475 1175 4450 
L 1175 4925 
z
" transform="scale(0.015625)"/>
       <path id="SimHei-5410" d="M 2825 3200 
Q 3175 3175 3600 3175 
L 4025 3175 
L 4025 4325 
Q 4000 4825 4000 5075 
L 4550 5075 
Q 4500 4800 4500 4325 
L 4500 3175 
L 5000 3175 
Q 5425 3175 5700 3200 
L 5700 2750 
Q 5450 2775 5025 2775 
L 4500 2775 
L 4500 100 
L 5275 100 
Q 5700 100 6050 125 
L 6050 -325 
Q 5725 -300 5300 -300 
L 3350 -300 
Q 2875 -300 2500 -325 
L 2500 125 
Q 2875 100 3350 100 
L 4025 100 
L 4025 2775 
L 3600 2775 
Q 3175 2775 2825 2750 
L 2825 3200 
z
M 1050 3825 
L 1050 1350 
L 1975 1350 
L 1975 3825 
L 1050 3825 
z
M 575 4225 
L 2450 4225 
Q 2425 3750 2425 3250 
L 2425 1225 
Q 2425 775 2450 450 
L 1975 450 
L 1975 950 
L 1050 950 
L 1050 -50 
L 575 -50 
Q 575 425 600 900 
L 600 3250 
Q 575 3750 575 4225 
z
" transform="scale(0.015625)"/>
       <path id="SimHei-91cf" d="M 3450 2175 
L 3450 1800 
L 4750 1800 
L 4750 2175 
L 3450 2175 
z
M 3450 1525 
L 3450 1175 
L 4750 1175 
L 4750 1525 
L 3450 1525 
z
M 1675 2175 
L 1675 1800 
L 3000 1800 
L 3000 2175 
L 1675 2175 
z
M 1675 1525 
L 1675 1175 
L 3000 1175 
L 3000 1525 
L 1675 1525 
z
M 1200 2450 
L 5250 2450 
Q 5200 2150 5200 1737 
Q 5200 1325 5250 900 
L 3450 900 
L 3450 500 
L 4600 500 
Q 5000 525 5375 525 
L 5375 175 
Q 5000 225 4600 225 
L 3450 225 
L 3450 -225 
L 5125 -225 
Q 5550 -200 5950 -200 
L 5950 -525 
Q 5550 -500 5125 -500 
L 1300 -500 
Q 900 -500 475 -525 
L 475 -200 
Q 925 -200 1300 -225 
L 3000 -225 
L 3000 225 
L 1750 225 
Q 1375 225 1000 175 
L 1000 525 
Q 1400 525 1750 500 
L 3000 500 
L 3000 900 
L 1200 900 
Q 1225 1300 1225 1712 
Q 1225 2125 1200 2450 
z
M 1675 4775 
L 1675 4350 
L 4750 4350 
L 4750 4775 
L 1675 4775 
z
M 1675 4075 
L 1675 3675 
L 4750 3675 
L 4750 4075 
L 1675 4075 
z
M 1200 5050 
L 5250 5050 
Q 5200 4650 5200 4300 
Q 5200 3950 5250 3400 
L 1200 3400 
Q 1225 3950 1212 4300 
Q 1200 4650 1200 5050 
z
M 475 3150 
Q 1100 3125 1750 3100 
L 4825 3100 
Q 5400 3125 5900 3150 
L 5900 2800 
Q 5400 2825 4850 2825 
L 1750 2825 
Q 1100 2825 475 2800 
L 475 3150 
z
" transform="scale(0.015625)"/>
       <path id="SimHei-28" d="M 3000 -225 
L 2725 -500 
Q 2100 100 1787 750 
Q 1475 1400 1475 2225 
Q 1475 3050 1787 3700 
Q 2100 4350 2725 4975 
L 3000 4700 
Q 2425 4150 2137 3562 
Q 1850 2975 1850 2225 
Q 1850 1475 2137 887 
Q 2425 300 3000 -225 
z
" transform="scale(0.015625)"/>
       <path id="SimHei-74" d="M 2775 175 
Q 2650 125 2487 87 
Q 2325 50 2050 50 
Q 1600 50 1325 300 
Q 1050 550 1050 1000 
L 1050 2500 
L 200 2500 
L 200 2900 
L 1050 2900 
L 1050 3875 
L 1550 3875 
L 1550 2900 
L 2575 2900 
L 2575 2500 
L 1550 2500 
L 1550 975 
Q 1550 775 1650 637 
Q 1750 500 2025 500 
Q 2300 500 2475 550 
Q 2650 600 2775 675 
L 2775 175 
z
" transform="scale(0.015625)"/>
       <path id="SimHei-70" d="M 2850 1500 
Q 2850 775 2500 400 
Q 2150 25 1650 25 
Q 1375 25 1175 137 
Q 975 250 825 475 
L 825 -825 
L 325 -825 
L 325 2900 
L 825 2900 
L 825 2525 
Q 975 2750 1175 2850 
Q 1375 2950 1650 2950 
Q 2150 2950 2500 2587 
Q 2850 2225 2850 1500 
z
M 2300 1500 
Q 2300 1975 2112 2237 
Q 1925 2500 1550 2500 
Q 1250 2500 1037 2237 
Q 825 1975 825 1500 
Q 825 1025 1037 750 
Q 1250 475 1550 475 
Q 1925 475 2112 750 
Q 2300 1025 2300 1500 
z
" transform="scale(0.015625)"/>
       <path id="SimHei-73" d="M 2775 875 
Q 2775 475 2462 262 
Q 2150 50 1675 50 
Q 1075 50 750 287 
Q 425 525 425 975 
L 925 975 
Q 925 675 1137 575 
Q 1350 475 1650 475 
Q 1950 475 2100 587 
Q 2250 700 2250 875 
Q 2250 1000 2125 1125 
Q 2000 1250 1500 1325 
Q 925 1400 712 1612 
Q 500 1825 500 2175 
Q 500 2475 787 2712 
Q 1075 2950 1625 2950 
Q 2125 2950 2412 2725 
Q 2700 2500 2700 2125 
L 2200 2125 
Q 2200 2350 2037 2437 
Q 1875 2525 1625 2525 
Q 1300 2525 1162 2412 
Q 1025 2300 1025 2150 
Q 1025 1975 1150 1875 
Q 1275 1775 1675 1725 
Q 2325 1625 2550 1412 
Q 2775 1200 2775 875 
z
" transform="scale(0.015625)"/>
       <path id="SimHei-29" d="M 1700 2225 
Q 1700 1400 1387 750 
Q 1075 100 450 -500 
L 175 -225 
Q 750 300 1037 887 
Q 1325 1475 1325 2225 
Q 1325 2975 1037 3562 
Q 750 4150 175 4700 
L 450 4975 
Q 1075 4350 1387 3700 
Q 1700 3050 1700 2225 
z
" transform="scale(0.015625)"/>
      </defs>
      <use xlink:href="#SimHei-541e"/>
      <use xlink:href="#SimHei-5410" x="100"/>
      <use xlink:href="#SimHei-91cf" x="200"/>
      <use xlink:href="#SimHei-28" x="300"/>
      <use xlink:href="#SimHei-74" x="350"/>
      <use xlink:href="#SimHei-70" x="400"/>
      <use xlink:href="#SimHei-73" x="450"/>
      <use xlink:href="#SimHei-29" x="500"/>
     </g>
    </g>
   </g>
   <g id="matplotlib.axis_2">
    <g id="ytick_1">
     <g id="line2d_10">
      <path d="M 57.6 297.348923 
L 414.72 297.348923 
" clip-path="url(#p7c7fce5992)" style="fill: none; stroke-dasharray: 2.96,1.28; stroke-dashoffset: 0; stroke: #ffffff; stroke-width: 0.8"/>
     </g>
     <g id="text_11">
      <!-- 1000 -->
      <g transform="translate(26.1 302.134079) scale(0.14 -0.14)">
       <use xlink:href="#SimHei-31"/>
       <use xlink:href="#SimHei-30" x="50"/>
       <use xlink:href="#SimHei-30" x="100"/>
       <use xlink:href="#SimHei-30" x="150"/>
      </g>
     </g>
    </g>
    <g id="ytick_2">
     <g id="line2d_11">
      <path d="M 57.6 246.173538 
L 414.72 246.173538 
" clip-path="url(#p7c7fce5992)" style="fill: none; stroke-dasharray: 2.96,1.28; stroke-dashoffset: 0; stroke: #ffffff; stroke-width: 0.8"/>
     </g>
     <g id="text_12">
      <!-- 1100 -->
      <g transform="translate(26.1 250.958695) scale(0.14 -0.14)">
       <use xlink:href="#SimHei-31"/>
       <use xlink:href="#SimHei-31" x="50"/>
       <use xlink:href="#SimHei-30" x="100"/>
       <use xlink:href="#SimHei-30" x="150"/>
      </g>
     </g>
    </g>
    <g id="ytick_3">
     <g id="line2d_12">
      <path d="M 57.6 194.998154 
L 414.72 194.998154 
" clip-path="url(#p7c7fce5992)" style="fill: none; stroke-dasharray: 2.96,1.28; stroke-dashoffset: 0; stroke: #ffffff; stroke-width: 0.8"/>
     </g>
     <g id="text_13">
      <!-- 1200 -->
      <g transform="translate(26.1 199.78331) scale(0.14 -0.14)">
       <use xlink:href="#SimHei-31"/>
       <use xlink:href="#SimHei-32" x="50"/>
       <use xlink:href="#SimHei-30" x="100"/>
       <use xlink:href="#SimHei-30" x="150"/>
      </g>
     </g>
    </g>
    <g id="ytick_4">
     <g id="line2d_13">
      <path d="M 57.6 143.822769 
L 414.72 143.822769 
" clip-path="url(#p7c7fce5992)" style="fill: none; stroke-dasharray: 2.96,1.28; stroke-dashoffset: 0; stroke: #ffffff; stroke-width: 0.8"/>
     </g>
     <g id="text_14">
      <!-- 1300 -->
      <g transform="translate(26.1 148.607925) scale(0.14 -0.14)">
       <use xlink:href="#SimHei-31"/>
       <use xlink:href="#SimHei-33" x="50"/>
       <use xlink:href="#SimHei-30" x="100"/>
       <use xlink:href="#SimHei-30" x="150"/>
      </g>
     </g>
    </g>
    <g id="ytick_5">
     <g id="line2d_14">
      <path d="M 57.6 92.647385 
L 414.72 92.647385 
" clip-path="url(#p7c7fce5992)" style="fill: none; stroke-dasharray: 2.96,1.28; stroke-dashoffset: 0; stroke: #ffffff; stroke-width: 0.8"/>
     </g>
     <g id="text_15">
      <!-- 1400 -->
      <g transform="translate(26.1 97.432541) scale(0.14 -0.14)">
       <use xlink:href="#SimHei-31"/>
       <use xlink:href="#SimHei-34" x="50"/>
       <use xlink:href="#SimHei-30" x="100"/>
       <use xlink:href="#SimHei-30" x="150"/>
      </g>
     </g>
    </g>
    <g id="ytick_6">
     <g id="line2d_15">
      <path d="M 57.6 41.472 
L 414.72 41.472 
" clip-path="url(#p7c7fce5992)" style="fill: none; stroke-dasharray: 2.96,1.28; stroke-dashoffset: 0; stroke: #ffffff; stroke-width: 0.8"/>
     </g>
     <g id="text_16">
      <!-- 1500 -->
      <g transform="translate(26.1 46.257156) scale(0.14 -0.14)">
       <use xlink:href="#SimHei-31"/>
       <use xlink:href="#SimHei-35" x="50"/>
       <use xlink:href="#SimHei-30" x="100"/>
       <use xlink:href="#SimHei-30" x="150"/>
      </g>
     </g>
    </g>
    <g id="text_17">
     <!-- 共识时延(ms) -->
     <g style="fill: #262626" transform="translate(20.295312 216.528) rotate(-90) scale(0.14 -0.14)">
      <defs>
       <path id="SimHei-5171" d="M 2400 1075 
Q 2650 850 2950 675 
Q 2600 475 2050 62 
Q 1500 -350 1000 -625 
Q 825 -350 600 -175 
Q 1100 50 1550 350 
Q 2000 650 2400 1075 
z
M 3700 650 
Q 3900 850 4075 1075 
Q 4350 900 4900 537 
Q 5450 175 5875 -175 
Q 5650 -350 5475 -600 
Q 5075 -250 4587 87 
Q 4100 425 3700 650 
z
M 2625 3300 
L 2625 1825 
L 3950 1825 
L 3950 3300 
L 2625 3300 
z
M 850 3750 
Q 1150 3725 1750 3725 
L 2125 3725 
Q 2125 4725 2100 5000 
L 2675 5000 
Q 2625 4725 2625 3725 
L 3950 3725 
Q 3950 4750 3925 5075 
L 4500 5075 
Q 4450 4750 4450 3725 
L 4950 3725 
Q 5375 3725 5675 3750 
L 5675 3275 
Q 5375 3300 4950 3300 
L 4450 3300 
L 4450 1825 
L 5275 1825 
Q 5725 1825 6000 1850 
L 6000 1375 
Q 5750 1400 5300 1400 
L 1200 1400 
Q 750 1400 475 1375 
L 475 1850 
Q 750 1825 1200 1825 
L 2125 1825 
L 2125 3300 
L 1700 3300 
Q 1125 3300 850 3275 
L 850 3750 
z
" transform="scale(0.015625)"/>
       <path id="SimHei-8bc6" d="M 2700 4800 
L 5550 4800 
Q 5525 4350 5525 3325 
Q 5525 2300 5550 1850 
L 2700 1850 
Q 2725 2275 2725 3312 
Q 2725 4350 2700 4800 
z
M 3200 4375 
L 3200 2275 
L 5050 2275 
L 5050 4375 
L 3200 4375 
z
M 3325 1375 
Q 3625 1225 3900 1100 
Q 3600 825 3250 400 
Q 2900 -25 2450 -525 
Q 2300 -350 2025 -175 
Q 3025 750 3325 1375 
z
M 4375 1050 
Q 4650 1200 4800 1375 
Q 5725 400 6075 -50 
Q 5825 -200 5650 -375 
Q 4725 750 4375 1050 
z
M 800 4650 
Q 1000 4775 1200 4950 
Q 1750 4375 1950 4050 
Q 1725 3900 1525 3725 
Q 1075 4400 800 4650 
z
M 350 3225 
Q 650 3200 1000 3200 
L 1700 3200 
Q 1675 2750 1675 2200 
L 1675 850 
Q 1925 1100 2200 1425 
Q 2300 1225 2475 950 
Q 2125 650 1862 362 
Q 1600 75 1350 -225 
Q 1175 25 925 175 
Q 1200 375 1200 650 
L 1200 2775 
Q 675 2775 350 2750 
L 350 3225 
z
" transform="scale(0.015625)"/>
       <path id="SimHei-65f6" d="M 2800 3825 
Q 3550 3800 4775 3800 
Q 4775 4550 4750 5200 
L 5275 5200 
Q 5250 4550 5250 3800 
Q 5600 3800 6000 3825 
L 6000 3350 
Q 5600 3375 5250 3375 
L 5250 25 
Q 5250 -350 4962 -450 
Q 4675 -550 4225 -600 
Q 4225 -300 3975 -25 
Q 4425 -75 4600 -50 
Q 4775 -25 4775 275 
L 4775 3375 
Q 3600 3375 2800 3350 
L 2800 3825 
z
M 3075 2475 
Q 3300 2575 3525 2700 
Q 3825 2175 4125 1575 
Q 3875 1500 3625 1350 
Q 3425 1950 3075 2475 
z
M 625 4550 
L 2575 4550 
Q 2550 3650 2550 2375 
Q 2550 1100 2575 375 
L 2075 375 
L 2075 850 
L 1125 850 
L 1125 25 
L 625 25 
Q 650 1175 650 2337 
Q 650 3500 625 4550 
z
M 1125 4125 
L 1125 2950 
L 2075 2950 
L 2075 4125 
L 1125 4125 
z
M 1125 2525 
L 1125 1275 
L 2075 1275 
L 2075 2525 
L 1125 2525 
z
" transform="scale(0.015625)"/>
       <path id="SimHei-5ef6" d="M 500 4625 
Q 1200 4600 1525 4600 
L 2150 4600 
Q 1575 3325 1350 2800 
L 2225 2800 
Q 2100 2125 1987 1650 
Q 1875 1175 1700 725 
Q 2075 400 2737 200 
Q 3400 0 4137 -25 
Q 4875 -50 6075 75 
Q 5850 -200 5825 -475 
Q 4775 -500 4087 -462 
Q 3400 -425 2912 -312 
Q 2425 -200 2112 -50 
Q 1800 100 1500 350 
Q 1125 -150 750 -525 
Q 600 -350 350 -200 
Q 825 175 1175 675 
Q 925 975 787 1200 
Q 650 1425 500 1700 
Q 600 1750 900 1925 
Q 1025 1650 1125 1487 
Q 1225 1325 1375 1125 
Q 1550 1575 1700 2425 
Q 1075 2425 825 2350 
L 700 2800 
Q 925 2900 1137 3387 
Q 1350 3875 1475 4200 
Q 900 4200 500 4175 
L 500 4625 
z
M 5125 5025 
Q 5200 4875 5575 4475 
Q 5275 4475 4450 4275 
L 4450 3000 
Q 5125 3000 5500 3025 
L 5500 2575 
Q 5125 2600 4450 2600 
L 4450 1150 
Q 4900 1150 5575 1175 
L 5575 725 
Q 4925 750 4550 750 
L 2725 750 
Q 2750 1350 2750 1750 
L 2750 2325 
Q 2750 2750 2725 3400 
L 3275 3400 
Q 3225 2750 3225 2125 
L 3225 1150 
L 3975 1150 
L 3975 4175 
Q 3075 4050 2675 3975 
Q 2625 4125 2475 4450 
Q 3300 4500 3862 4612 
Q 4425 4725 5125 5025 
z
" transform="scale(0.015625)"/>
       <path id="SimHei-6d" d="M 3075 100 
L 2575 100 
L 2575 2125 
Q 2575 2275 2525 2375 
Q 2475 2475 2325 2475 
Q 2150 2475 2000 2287 
Q 1850 2100 1850 1800 
L 1850 100 
L 1350 100 
L 1350 2125 
Q 1350 2275 1300 2375 
Q 1250 2475 1100 2475 
Q 925 2475 775 2287 
Q 625 2100 625 1800 
L 625 100 
L 125 100 
L 125 2900 
L 625 2900 
L 625 2525 
Q 750 2725 925 2837 
Q 1100 2950 1300 2950 
Q 1500 2950 1637 2837 
Q 1775 2725 1825 2525 
Q 1950 2725 2112 2837 
Q 2275 2950 2475 2950 
Q 2775 2950 2925 2787 
Q 3075 2625 3075 2325 
L 3075 100 
z
" transform="scale(0.015625)"/>
      </defs>
      <use xlink:href="#SimHei-5171"/>
      <use xlink:href="#SimHei-8bc6" x="100"/>
      <use xlink:href="#SimHei-65f6" x="200"/>
      <use xlink:href="#SimHei-5ef6" x="300"/>
      <use xlink:href="#SimHei-28" x="400"/>
      <use xlink:href="#SimHei-6d" x="450"/>
      <use xlink:href="#SimHei-73" x="500"/>
      <use xlink:href="#SimHei-29" x="550"/>
     </g>
    </g>
   </g>
   <g id="line2d_16">
    <path d="M 70.360018 297.348923 
L 79.468584 296.837169 
L 90.543317 296.325415 
L 133.598346 295.813662 
L 197.960198 295.301908 
L 202.253663 274.32 
L 198.080575 246.173538 
L 192.663587 169.410462 
L 191.620315 92.647385 
" clip-path="url(#p7c7fce5992)" style="fill: none; stroke: #4c72b0; stroke-opacity: 0.8; stroke-width: 1.5; stroke-linecap: round"/>
    <defs>
     <path id="mdb6567f760" d="M 0 -2.4 
L -2.4 2.4 
L 2.4 2.4 
z
" style="stroke: #000000; stroke-opacity: 0; stroke-width: 0.75; stroke-linejoin: miter"/>
    </defs>
    <g clip-path="url(#p7c7fce5992)">
     <use xlink:href="#mdb6567f760" x="70.360018" y="297.348923" style="fill: #4c72b0; fill-opacity: 0.8; stroke: #000000; stroke-opacity: 0; stroke-width: 0.75; stroke-linejoin: miter"/>
     <use xlink:href="#mdb6567f760" x="79.468584" y="296.837169" style="fill: #4c72b0; fill-opacity: 0.8; stroke: #000000; stroke-opacity: 0; stroke-width: 0.75; stroke-linejoin: miter"/>
     <use xlink:href="#mdb6567f760" x="90.543317" y="296.325415" style="fill: #4c72b0; fill-opacity: 0.8; stroke: #000000; stroke-opacity: 0; stroke-width: 0.75; stroke-linejoin: miter"/>
     <use xlink:href="#mdb6567f760" x="133.598346" y="295.813662" style="fill: #4c72b0; fill-opacity: 0.8; stroke: #000000; stroke-opacity: 0; stroke-width: 0.75; stroke-linejoin: miter"/>
     <use xlink:href="#mdb6567f760" x="197.960198" y="295.301908" style="fill: #4c72b0; fill-opacity: 0.8; stroke: #000000; stroke-opacity: 0; stroke-width: 0.75; stroke-linejoin: miter"/>
     <use xlink:href="#mdb6567f760" x="202.253663" y="274.32" style="fill: #4c72b0; fill-opacity: 0.8; stroke: #000000; stroke-opacity: 0; stroke-width: 0.75; stroke-linejoin: miter"/>
     <use xlink:href="#mdb6567f760" x="198.080575" y="246.173538" style="fill: #4c72b0; fill-opacity: 0.8; stroke: #000000; stroke-opacity: 0; stroke-width: 0.75; stroke-linejoin: miter"/>
     <use xlink:href="#mdb6567f760" x="192.663587" y="169.410462" style="fill: #4c72b0; fill-opacity: 0.8; stroke: #000000; stroke-opacity: 0; stroke-width: 0.75; stroke-linejoin: miter"/>
     <use xlink:href="#mdb6567f760" x="191.620315" y="92.647385" style="fill: #4c72b0; fill-opacity: 0.8; stroke: #000000; stroke-opacity: 0; stroke-width: 0.75; stroke-linejoin: miter"/>
    </g>
   </g>
   <g id="line2d_17">
    <path d="M 76.338769 297.348923 
L 93.79351 296.837169 
L 106.63378 296.325415 
L 137.209672 295.813662 
L 185.240306 295.301908 
L 335.511587 294.790154 
L 345.864054 279.437538 
L 342.613861 225.703385 
L 339.604422 143.822769 
L 332.141016 82.412308 
" clip-path="url(#p7c7fce5992)" style="fill: none; stroke: #dd8452; stroke-opacity: 0.8; stroke-width: 1.5; stroke-linecap: round"/>
    <defs>
     <path id="mb52b65ed34" d="M -2.4 2.4 
L 2.4 2.4 
L 2.4 -2.4 
L -2.4 -2.4 
z
" style="stroke: #000000; stroke-opacity: 0; stroke-width: 0.75; stroke-linejoin: miter"/>
    </defs>
    <g clip-path="url(#p7c7fce5992)">
     <use xlink:href="#mb52b65ed34" x="76.338769" y="297.348923" style="fill: #dd8452; fill-opacity: 0.8; stroke: #000000; stroke-opacity: 0; stroke-width: 0.75; stroke-linejoin: miter"/>
     <use xlink:href="#mb52b65ed34" x="93.79351" y="296.837169" style="fill: #dd8452; fill-opacity: 0.8; stroke: #000000; stroke-opacity: 0; stroke-width: 0.75; stroke-linejoin: miter"/>
     <use xlink:href="#mb52b65ed34" x="106.63378" y="296.325415" style="fill: #dd8452; fill-opacity: 0.8; stroke: #000000; stroke-opacity: 0; stroke-width: 0.75; stroke-linejoin: miter"/>
     <use xlink:href="#mb52b65ed34" x="137.209672" y="295.813662" style="fill: #dd8452; fill-opacity: 0.8; stroke: #000000; stroke-opacity: 0; stroke-width: 0.75; stroke-linejoin: miter"/>
     <use xlink:href="#mb52b65ed34" x="185.240306" y="295.301908" style="fill: #dd8452; fill-opacity: 0.8; stroke: #000000; stroke-opacity: 0; stroke-width: 0.75; stroke-linejoin: miter"/>
     <use xlink:href="#mb52b65ed34" x="335.511587" y="294.790154" style="fill: #dd8452; fill-opacity: 0.8; stroke: #000000; stroke-opacity: 0; stroke-width: 0.75; stroke-linejoin: miter"/>
     <use xlink:href="#mb52b65ed34" x="345.864054" y="279.437538" style="fill: #dd8452; fill-opacity: 0.8; stroke: #000000; stroke-opacity: 0; stroke-width: 0.75; stroke-linejoin: miter"/>
     <use xlink:href="#mb52b65ed34" x="342.613861" y="225.703385" style="fill: #dd8452; fill-opacity: 0.8; stroke: #000000; stroke-opacity: 0; stroke-width: 0.75; stroke-linejoin: miter"/>
     <use xlink:href="#mb52b65ed34" x="339.604422" y="143.822769" style="fill: #dd8452; fill-opacity: 0.8; stroke: #000000; stroke-opacity: 0; stroke-width: 0.75; stroke-linejoin: miter"/>
     <use xlink:href="#mb52b65ed34" x="332.141016" y="82.412308" style="fill: #dd8452; fill-opacity: 0.8; stroke: #000000; stroke-opacity: 0; stroke-width: 0.75; stroke-linejoin: miter"/>
    </g>
   </g>
   <g id="line2d_18">
    <path d="M 73.136726 297.348923 
L 86.54277 296.837169 
L 96.325451 296.325415 
L 138.886932 295.301908 
L 170.060699 294.790154 
L 344.632191 294.2784 
L 346.790961 276.878769 
L 347.436987 220.585846 
L 346.233212 194.998154 
L 344.295133 92.647385 
" clip-path="url(#p7c7fce5992)" style="fill: none; stroke: #55a868; stroke-opacity: 0.8; stroke-width: 1.5; stroke-linecap: round"/>
    <defs>
     <path id="m1f9a9d7be9" d="M 0 2.4 
C 0.636487 2.4 1.246992 2.147121 1.697056 1.697056 
C 2.147121 1.246992 2.4 0.636487 2.4 0 
C 2.4 -0.636487 2.147121 -1.246992 1.697056 -1.697056 
C 1.246992 -2.147121 0.636487 -2.4 0 -2.4 
C -0.636487 -2.4 -1.246992 -2.147121 -1.697056 -1.697056 
C -2.147121 -1.246992 -2.4 -0.636487 -2.4 0 
C -2.4 0.636487 -2.147121 1.246992 -1.697056 1.697056 
C -1.246992 2.147121 -0.636487 2.4 0 2.4 
z
" style="stroke: #000000; stroke-opacity: 0; stroke-width: 0.75"/>
    </defs>
    <g clip-path="url(#p7c7fce5992)">
     <use xlink:href="#m1f9a9d7be9" x="73.136726" y="297.348923" style="fill: #55a868; fill-opacity: 0.8; stroke: #000000; stroke-opacity: 0; stroke-width: 0.75"/>
     <use xlink:href="#m1f9a9d7be9" x="86.54277" y="296.837169" style="fill: #55a868; fill-opacity: 0.8; stroke: #000000; stroke-opacity: 0; stroke-width: 0.75"/>
     <use xlink:href="#m1f9a9d7be9" x="96.325451" y="296.325415" style="fill: #55a868; fill-opacity: 0.8; stroke: #000000; stroke-opacity: 0; stroke-width: 0.75"/>
     <use xlink:href="#m1f9a9d7be9" x="138.886932" y="295.301908" style="fill: #55a868; fill-opacity: 0.8; stroke: #000000; stroke-opacity: 0; stroke-width: 0.75"/>
     <use xlink:href="#m1f9a9d7be9" x="170.060699" y="294.790154" style="fill: #55a868; fill-opacity: 0.8; stroke: #000000; stroke-opacity: 0; stroke-width: 0.75"/>
     <use xlink:href="#m1f9a9d7be9" x="344.632191" y="294.2784" style="fill: #55a868; fill-opacity: 0.8; stroke: #000000; stroke-opacity: 0; stroke-width: 0.75"/>
     <use xlink:href="#m1f9a9d7be9" x="346.790961" y="276.878769" style="fill: #55a868; fill-opacity: 0.8; stroke: #000000; stroke-opacity: 0; stroke-width: 0.75"/>
     <use xlink:href="#m1f9a9d7be9" x="347.436987" y="220.585846" style="fill: #55a868; fill-opacity: 0.8; stroke: #000000; stroke-opacity: 0; stroke-width: 0.75"/>
     <use xlink:href="#m1f9a9d7be9" x="346.233212" y="194.998154" style="fill: #55a868; fill-opacity: 0.8; stroke: #000000; stroke-opacity: 0; stroke-width: 0.75"/>
     <use xlink:href="#m1f9a9d7be9" x="344.295133" y="92.647385" style="fill: #55a868; fill-opacity: 0.8; stroke: #000000; stroke-opacity: 0; stroke-width: 0.75"/>
    </g>
   </g>
   <g id="line2d_19"/>
   <g id="line2d_20"/>
   <g id="line2d_21"/>
   <g id="patch_3">
    <path d="M 57.6 307.584 
L 57.6 41.472 
" style="fill: none"/>
   </g>
   <g id="patch_4">
    <path d="M 414.72 307.584 
L 414.72 41.472 
" style="fill: none"/>
   </g>
   <g id="patch_5">
    <path d="M 57.6 307.584 
L 414.72 307.584 
" style="fill: none"/>
   </g>
   <g id="patch_6">
    <path d="M 57.6 41.472 
L 414.72 41.472 
" style="fill: none"/>
   </g>
   <g id="legend_1">
    <g id="patch_7">
     <path d="M 63.76 109.7995 
L 169.92 109.7995 
Q 171.68 109.7995 171.68 108.0395 
L 171.68 47.632 
Q 171.68 45.872 169.92 45.872 
L 63.76 45.872 
Q 62 45.872 62 47.632 
L 62 108.0395 
Q 62 109.7995 63.76 109.7995 
z
" style="fill: #eaeaf1; opacity: 0.8; stroke: #cccccc; stroke-width: 0.8; stroke-linejoin: miter"/>
    </g>
    <g id="text_18">
     <!-- 区块大小 -->
     <g transform="translate(92.84 58.767) scale(0.12 -0.12)">
      <defs>
       <path id="SimHei-533a" d="M 2100 3350 
Q 2325 3550 2425 3775 
Q 3250 3175 3850 2625 
Q 4375 3275 4625 3950 
Q 4875 3775 5250 3600 
Q 4975 3450 4787 3137 
Q 4600 2825 4225 2300 
Q 5025 1625 5525 975 
Q 5250 750 5100 550 
Q 4750 1125 3900 1900 
Q 3550 1475 3175 1125 
Q 2800 775 2275 350 
Q 2075 600 1825 725 
Q 2275 975 2650 1275 
Q 3025 1575 3550 2225 
Q 2950 2800 2100 3350 
z
M 875 4850 
L 4775 4850 
Q 5425 4850 5750 4875 
L 5750 4425 
Q 5400 4450 4800 4450 
L 1375 4450 
L 1375 -75 
L 5150 -75 
Q 5650 -75 5925 -50 
L 5925 -500 
Q 5625 -475 5100 -475 
L 875 -475 
Q 900 100 900 375 
L 900 4100 
Q 900 4525 875 4850 
z
" transform="scale(0.015625)"/>
       <path id="SimHei-5757" d="M 375 3425 
Q 750 3400 1075 3400 
L 1200 3400 
L 1200 4150 
Q 1200 4550 1175 4925 
L 1675 4925 
Q 1650 4575 1650 4150 
L 1650 3400 
L 1850 3400 
Q 2025 3400 2450 3425 
L 2450 2975 
Q 2025 3025 1850 3025 
L 1650 3025 
L 1650 1150 
Q 1850 1225 2550 1425 
Q 2525 1175 2525 1000 
Q 2075 850 1487 625 
Q 900 400 525 225 
Q 450 625 325 825 
Q 575 875 800 925 
Q 1025 975 1200 1025 
L 1200 3025 
L 1100 3025 
Q 750 3025 375 3000 
L 375 3425 
z
M 4000 3725 
L 4000 2250 
L 4875 2250 
L 4875 3725 
L 4000 3725 
z
M 2475 4125 
Q 2850 4100 3250 4100 
L 3525 4100 
Q 3525 4825 3500 5175 
Q 3675 5125 4100 5075 
Q 4050 4875 4025 4662 
Q 4000 4450 4000 4100 
L 5375 4100 
Q 5350 3725 5350 3275 
L 5350 2250 
Q 5700 2250 5975 2275 
L 5975 1850 
Q 5600 1875 5225 1875 
L 4050 1875 
Q 4275 1350 4512 1050 
Q 4750 750 4987 562 
Q 5225 375 5537 237 
Q 5850 100 6150 0 
Q 5900 -225 5775 -525 
Q 5325 -300 4987 -62 
Q 4650 175 4412 437 
Q 4175 700 4037 975 
Q 3900 1250 3825 1425 
Q 3725 1075 3600 850 
Q 3475 625 3250 350 
Q 3025 75 2762 -150 
Q 2500 -375 2125 -650 
Q 1925 -400 1650 -200 
Q 2025 -25 2362 200 
Q 2700 425 2937 700 
Q 3175 975 3300 1262 
Q 3425 1550 3475 1875 
L 3050 1875 
Q 2650 1875 2275 1850 
L 2275 2275 
Q 2650 2250 3050 2250 
L 3525 2250 
L 3525 3725 
L 3250 3725 
Q 2875 3725 2475 3675 
L 2475 4125 
z
" transform="scale(0.015625)"/>
       <path id="SimHei-5927" d="M 675 3475 
Q 1050 3450 1600 3425 
L 2925 3425 
Q 2925 4225 2912 4525 
Q 2900 4825 2875 5100 
Q 3175 5050 3525 5025 
Q 3450 4775 3425 4312 
Q 3400 3850 3400 3425 
L 4800 3425 
Q 5250 3450 5775 3475 
L 5775 2950 
Q 5250 2975 4800 2975 
L 3425 2975 
Q 3475 2425 3650 2025 
Q 3825 1625 4162 1262 
Q 4500 900 4937 587 
Q 5375 275 5900 75 
Q 5625 -150 5450 -500 
Q 5075 -275 4737 -12 
Q 4400 250 4125 550 
Q 3850 850 3612 1225 
Q 3375 1600 3200 2025 
Q 3000 1550 2800 1212 
Q 2600 875 2325 587 
Q 2050 300 1687 25 
Q 1325 -250 800 -550 
Q 625 -275 375 -25 
Q 950 175 1400 475 
Q 1850 775 2175 1175 
Q 2500 1575 2687 2037 
Q 2875 2500 2900 2975 
L 1600 2975 
Q 1050 2975 675 2950 
L 675 3475 
z
" transform="scale(0.015625)"/>
       <path id="SimHei-5c0f" d="M 1375 3500 
Q 1675 3375 2000 3325 
Q 1725 2750 1437 2025 
Q 1150 1300 925 825 
Q 675 1000 400 1075 
Q 850 1800 1087 2475 
Q 1325 3150 1375 3500 
z
M 4275 3250 
Q 4525 3350 4750 3525 
Q 5075 3000 5425 2362 
Q 5775 1725 6025 1150 
Q 5725 1075 5450 900 
Q 5200 1575 4900 2162 
Q 4600 2750 4275 3250 
z
M 2900 4975 
L 3500 4975 
Q 3450 4650 3450 4075 
L 3450 175 
Q 3450 -275 3200 -400 
Q 2950 -525 2400 -575 
Q 2325 -225 2175 25 
Q 2675 0 2800 25 
Q 2925 50 2925 325 
L 2925 4075 
Q 2925 4500 2900 4975 
z
" transform="scale(0.015625)"/>
      </defs>
      <use xlink:href="#SimHei-533a"/>
      <use xlink:href="#SimHei-5757" x="100"/>
      <use xlink:href="#SimHei-5927" x="200"/>
      <use xlink:href="#SimHei-5c0f" x="300"/>
     </g>
    </g>
    <g id="line2d_22">
     <path d="M 65.52 71.008875 
L 74.32 71.008875 
L 83.12 71.008875 
" style="fill: none; stroke: #4c72b0; stroke-width: 1.2; stroke-linecap: round"/>
     <defs>
      <path id="mcdaaccec72" d="M 0 -2.4 
L -2.4 2.4 
L 2.4 2.4 
z
" style="stroke: #4c72b0; stroke-linejoin: miter"/>
     </defs>
     <g>
      <use xlink:href="#mcdaaccec72" x="74.32" y="71.008875" style="fill: #4c72b0; stroke: #4c72b0; stroke-linejoin: miter"/>
     </g>
    </g>
    <g id="text_19">
     <!-- 区块大小:400 -->
     <g transform="translate(90.16 74.088875) scale(0.12 -0.12)">
      <defs>
       <path id="SimHei-3a" d="M 1850 2400 
L 1275 2400 
L 1275 2950 
L 1850 2950 
L 1850 2400 
z
M 1850 100 
L 1275 100 
L 1275 650 
L 1850 650 
L 1850 100 
z
" transform="scale(0.015625)"/>
      </defs>
      <use xlink:href="#SimHei-533a"/>
      <use xlink:href="#SimHei-5757" x="100"/>
      <use xlink:href="#SimHei-5927" x="200"/>
      <use xlink:href="#SimHei-5c0f" x="300"/>
      <use xlink:href="#SimHei-3a" x="400"/>
      <use xlink:href="#SimHei-34" x="450"/>
      <use xlink:href="#SimHei-30" x="500"/>
      <use xlink:href="#SimHei-30" x="550"/>
     </g>
    </g>
    <g id="line2d_23">
     <path d="M 65.52 86.33075 
L 74.32 86.33075 
L 83.12 86.33075 
" style="fill: none; stroke: #dd8452; stroke-width: 1.2; stroke-linecap: round"/>
     <defs>
      <path id="m70b26af63a" d="M -2.4 2.4 
L 2.4 2.4 
L 2.4 -2.4 
L -2.4 -2.4 
z
" style="stroke: #dd8452; stroke-linejoin: miter"/>
     </defs>
     <g>
      <use xlink:href="#m70b26af63a" x="74.32" y="86.33075" style="fill: #dd8452; stroke: #dd8452; stroke-linejoin: miter"/>
     </g>
    </g>
    <g id="text_20">
     <!-- 区块大小:800 -->
     <g transform="translate(90.16 89.41075) scale(0.12 -0.12)">
      <use xlink:href="#SimHei-533a"/>
      <use xlink:href="#SimHei-5757" x="100"/>
      <use xlink:href="#SimHei-5927" x="200"/>
      <use xlink:href="#SimHei-5c0f" x="300"/>
      <use xlink:href="#SimHei-3a" x="400"/>
      <use xlink:href="#SimHei-38" x="450"/>
      <use xlink:href="#SimHei-30" x="500"/>
      <use xlink:href="#SimHei-30" x="550"/>
     </g>
    </g>
    <g id="line2d_24">
     <path d="M 65.52 101.652625 
L 74.32 101.652625 
L 83.12 101.652625 
" style="fill: none; stroke: #55a868; stroke-width: 1.2; stroke-linecap: round"/>
     <defs>
      <path id="m1a24ae15d1" d="M 0 2.4 
C 0.636487 2.4 1.246992 2.147121 1.697056 1.697056 
C 2.147121 1.246992 2.4 0.636487 2.4 0 
C 2.4 -0.636487 2.147121 -1.246992 1.697056 -1.697056 
C 1.246992 -2.147121 0.636487 -2.4 0 -2.4 
C -0.636487 -2.4 -1.246992 -2.147121 -1.697056 -1.697056 
C -2.147121 -1.246992 -2.4 -0.636487 -2.4 0 
C -2.4 0.636487 -2.147121 1.246992 -1.697056 1.697056 
C -1.246992 2.147121 -0.636487 2.4 0 2.4 
z
" style="stroke: #55a868"/>
     </defs>
     <g>
      <use xlink:href="#m1a24ae15d1" x="74.32" y="101.652625" style="fill: #55a868; stroke: #55a868"/>
     </g>
    </g>
    <g id="text_21">
     <!-- 区块大小:1600 -->
     <g transform="translate(90.16 104.732625) scale(0.12 -0.12)">
      <use xlink:href="#SimHei-533a"/>
      <use xlink:href="#SimHei-5757" x="100"/>
      <use xlink:href="#SimHei-5927" x="200"/>
      <use xlink:href="#SimHei-5c0f" x="300"/>
      <use xlink:href="#SimHei-3a" x="400"/>
      <use xlink:href="#SimHei-31" x="450"/>
      <use xlink:href="#SimHei-36" x="500"/>
      <use xlink:href="#SimHei-30" x="550"/>
      <use xlink:href="#SimHei-30" x="600"/>
     </g>
    </g>
   </g>
  </g>
 </g>
 <defs>
  <clipPath id="p7c7fce5992">
   <rect x="57.6" y="41.472" width="357.12" height="266.112"/>
  </clipPath>
 </defs>
</svg>
