<?xml version="1.0" encoding="utf-8" standalone="no"?>
<!DOCTYPE svg PUBLIC "-//W3C//DTD SVG 1.1//EN"
  "http://www.w3.org/Graphics/SVG/1.1/DTD/svg11.dtd">
<svg xmlns:xlink="http://www.w3.org/1999/xlink" width="460.8pt" height="345.6pt" viewBox="0 0 460.8 345.6" xmlns="http://www.w3.org/2000/svg" version="1.1">
 <metadata>
  <rdf:RDF xmlns:dc="http://purl.org/dc/elements/1.1/" xmlns:cc="http://creativecommons.org/ns#" xmlns:rdf="http://www.w3.org/1999/02/22-rdf-syntax-ns#">
   <cc:Work>
    <dc:type rdf:resource="http://purl.org/dc/dcmitype/StillImage"/>
    <dc:date>2024-01-08T23:43:10.694190</dc:date>
    <dc:format>image/svg+xml</dc:format>
    <dc:creator>
     <cc:Agent>
      <dc:title>Matplotlib v3.6.2, https://matplotlib.org/</dc:title>
     </cc:Agent>
    </dc:creator>
   </cc:Work>
  </rdf:RDF>
 </metadata>
 <defs>
  <style type="text/css">*{stroke-linejoin: round; stroke-linecap: butt}</style>
 </defs>
 <g id="figure_1">
  <g id="patch_1">
   <path d="M 0 345.6 
L 460.8 345.6 
L 460.8 0 
L 0 0 
z
" style="fill: #ffffff"/>
  </g>
  <g id="axes_1">
   <g id="patch_2">
    <path d="M 57.6 307.584 
L 414.72 307.584 
L 414.72 41.472 
L 57.6 41.472 
z
" style="fill: #eaeaf2"/>
   </g>
   <g id="matplotlib.axis_1">
    <g id="xtick_1">
     <g id="line2d_1">
      <path d="M 57.6 307.584 
L 57.6 41.472 
" clip-path="url(#pabaa9d4b3c)" style="fill: none; stroke-dasharray: 2.96,1.28; stroke-dashoffset: 0; stroke: #ffffff; stroke-width: 0.8"/>
     </g>
     <g id="text_1">
      <!-- 0 -->
      <g transform="translate(53.85 321.337906) scale(0.15 -0.15)">
       <defs>
        <path id="SimHei-30" d="M 2975 2250 
Q 2975 1350 2650 700 
Q 2325 50 1600 50 
Q 875 50 537 700 
Q 200 1350 200 2250 
Q 200 3150 537 3787 
Q 875 4425 1600 4425 
Q 2325 4425 2650 3787 
Q 2975 3150 2975 2250 
z
M 2375 2250 
Q 2375 3050 2187 3500 
Q 2000 3950 1600 3950 
Q 1200 3950 1000 3500 
Q 800 3050 800 2250 
Q 800 1450 1000 987 
Q 1200 525 1600 525 
Q 2000 525 2187 987 
Q 2375 1450 2375 2250 
z
" transform="scale(0.015625)"/>
       </defs>
       <use xlink:href="#SimHei-30"/>
      </g>
     </g>
    </g>
    <g id="xtick_2">
     <g id="line2d_2">
      <path d="M 97.28 307.584 
L 97.28 41.472 
" clip-path="url(#pabaa9d4b3c)" style="fill: none; stroke-dasharray: 2.96,1.28; stroke-dashoffset: 0; stroke: #ffffff; stroke-width: 0.8"/>
     </g>
     <g id="text_2">
      <!-- 1 -->
      <g transform="translate(93.53 321.337906) scale(0.15 -0.15)">
       <defs>
        <path id="SimHei-31" d="M 1950 100 
L 1375 100 
L 1375 3425 
L 625 3425 
L 625 3725 
Q 1075 3725 1325 3900 
Q 1575 4075 1650 4425 
L 1950 4425 
L 1950 100 
z
" transform="scale(0.015625)"/>
       </defs>
       <use xlink:href="#SimHei-31"/>
      </g>
     </g>
    </g>
    <g id="xtick_3">
     <g id="line2d_3">
      <path d="M 136.96 307.584 
L 136.96 41.472 
" clip-path="url(#pabaa9d4b3c)" style="fill: none; stroke-dasharray: 2.96,1.28; stroke-dashoffset: 0; stroke: #ffffff; stroke-width: 0.8"/>
     </g>
     <g id="text_3">
      <!-- 2 -->
      <g transform="translate(133.21 321.337906) scale(0.15 -0.15)">
       <defs>
        <path id="SimHei-32" d="M 2850 100 
L 300 100 
L 300 500 
Q 450 900 712 1237 
Q 975 1575 1475 2000 
Q 1850 2325 2012 2600 
Q 2175 2875 2175 3200 
Q 2175 3525 2037 3737 
Q 1900 3950 1600 3950 
Q 1350 3950 1162 3725 
Q 975 3500 975 2925 
L 400 2925 
Q 425 3650 737 4037 
Q 1050 4425 1625 4425 
Q 2175 4425 2475 4087 
Q 2775 3750 2775 3175 
Q 2775 2700 2500 2350 
Q 2225 2000 1825 1650 
Q 1375 1250 1200 1050 
Q 1025 850 875 575 
L 2850 575 
L 2850 100 
z
" transform="scale(0.015625)"/>
       </defs>
       <use xlink:href="#SimHei-32"/>
      </g>
     </g>
    </g>
    <g id="xtick_4">
     <g id="line2d_4">
      <path d="M 176.64 307.584 
L 176.64 41.472 
" clip-path="url(#pabaa9d4b3c)" style="fill: none; stroke-dasharray: 2.96,1.28; stroke-dashoffset: 0; stroke: #ffffff; stroke-width: 0.8"/>
     </g>
     <g id="text_4">
      <!-- 3 -->
      <g transform="translate(172.89 321.337906) scale(0.15 -0.15)">
       <defs>
        <path id="SimHei-33" d="M 2825 1300 
Q 2825 725 2462 387 
Q 2100 50 1550 50 
Q 1000 50 637 387 
Q 275 725 275 1425 
L 850 1425 
Q 850 950 1037 737 
Q 1225 525 1550 525 
Q 1875 525 2050 725 
Q 2225 925 2225 1350 
Q 2225 1700 2037 1900 
Q 1850 2100 1375 2100 
L 1375 2525 
Q 1775 2525 1962 2725 
Q 2150 2925 2150 3325 
Q 2150 3625 2012 3800 
Q 1875 3975 1575 3975 
Q 1275 3975 1112 3762 
Q 950 3550 925 3150 
L 375 3150 
Q 425 3725 737 4075 
Q 1050 4425 1575 4425 
Q 2125 4425 2425 4112 
Q 2725 3800 2725 3350 
Q 2725 2925 2575 2687 
Q 2425 2450 2075 2325 
Q 2425 2250 2625 1975 
Q 2825 1700 2825 1300 
z
" transform="scale(0.015625)"/>
       </defs>
       <use xlink:href="#SimHei-33"/>
      </g>
     </g>
    </g>
    <g id="xtick_5">
     <g id="line2d_5">
      <path d="M 216.32 307.584 
L 216.32 41.472 
" clip-path="url(#pabaa9d4b3c)" style="fill: none; stroke-dasharray: 2.96,1.28; stroke-dashoffset: 0; stroke: #ffffff; stroke-width: 0.8"/>
     </g>
     <g id="text_5">
      <!-- 4 -->
      <g transform="translate(212.57 321.337906) scale(0.15 -0.15)">
       <defs>
        <path id="SimHei-34" d="M 2975 1200 
L 2450 1200 
L 2450 100 
L 1875 100 
L 1875 1200 
L 200 1200 
L 200 1675 
L 1875 4425 
L 2450 4425 
L 2450 1675 
L 2975 1675 
L 2975 1200 
z
M 1875 1675 
L 1875 3525 
L 750 1675 
L 1875 1675 
z
" transform="scale(0.015625)"/>
       </defs>
       <use xlink:href="#SimHei-34"/>
      </g>
     </g>
    </g>
    <g id="xtick_6">
     <g id="line2d_6">
      <path d="M 256 307.584 
L 256 41.472 
" clip-path="url(#pabaa9d4b3c)" style="fill: none; stroke-dasharray: 2.96,1.28; stroke-dashoffset: 0; stroke: #ffffff; stroke-width: 0.8"/>
     </g>
     <g id="text_6">
      <!-- 5 -->
      <g transform="translate(252.25 321.337906) scale(0.15 -0.15)">
       <defs>
        <path id="SimHei-35" d="M 2825 1650 
Q 2825 900 2462 475 
Q 2100 50 1500 50 
Q 975 50 637 400 
Q 300 750 275 1350 
L 850 1350 
Q 850 975 1025 750 
Q 1200 525 1525 525 
Q 1850 525 2037 800 
Q 2225 1075 2225 1650 
Q 2225 2150 2062 2387 
Q 1900 2625 1625 2625 
Q 1400 2625 1237 2525 
Q 1075 2425 925 2175 
L 425 2175 
L 575 4375 
L 2725 4375 
L 2725 3900 
L 1050 3900 
L 950 2750 
Q 1100 2900 1275 2975 
Q 1450 3050 1750 3050 
Q 2225 3050 2525 2687 
Q 2825 2325 2825 1650 
z
" transform="scale(0.015625)"/>
       </defs>
       <use xlink:href="#SimHei-35"/>
      </g>
     </g>
    </g>
    <g id="xtick_7">
     <g id="line2d_7">
      <path d="M 295.68 307.584 
L 295.68 41.472 
" clip-path="url(#pabaa9d4b3c)" style="fill: none; stroke-dasharray: 2.96,1.28; stroke-dashoffset: 0; stroke: #ffffff; stroke-width: 0.8"/>
     </g>
     <g id="text_7">
      <!-- 6 -->
      <g transform="translate(291.93 321.337906) scale(0.15 -0.15)">
       <defs>
        <path id="SimHei-36" d="M 2850 1550 
Q 2850 850 2550 450 
Q 2250 50 1650 50 
Q 1050 50 700 550 
Q 350 1050 350 2175 
Q 350 3200 712 3812 
Q 1075 4425 1750 4425 
Q 2225 4425 2512 4075 
Q 2800 3725 2800 3300 
L 2225 3300 
Q 2225 3550 2087 3750 
Q 1950 3950 1725 3950 
Q 1350 3950 1150 3562 
Q 950 3175 925 2375 
Q 1100 2700 1300 2825 
Q 1500 2950 1775 2950 
Q 2250 2950 2550 2575 
Q 2850 2200 2850 1550 
z
M 2250 1550 
Q 2250 2000 2100 2250 
Q 1950 2500 1675 2500 
Q 1350 2500 1162 2250 
Q 975 2000 975 1650 
Q 975 1100 1162 800 
Q 1350 500 1675 500 
Q 1900 500 2075 725 
Q 2250 950 2250 1550 
z
" transform="scale(0.015625)"/>
       </defs>
       <use xlink:href="#SimHei-36"/>
      </g>
     </g>
    </g>
    <g id="xtick_8">
     <g id="line2d_8">
      <path d="M 335.36 307.584 
L 335.36 41.472 
" clip-path="url(#pabaa9d4b3c)" style="fill: none; stroke-dasharray: 2.96,1.28; stroke-dashoffset: 0; stroke: #ffffff; stroke-width: 0.8"/>
     </g>
     <g id="text_8">
      <!-- 7 -->
      <g transform="translate(331.61 321.337906) scale(0.15 -0.15)">
       <defs>
        <path id="SimHei-37" d="M 2775 3850 
L 1600 100 
L 1025 100 
L 2225 3900 
L 400 3900 
L 400 4375 
L 2775 4375 
L 2775 3850 
z
" transform="scale(0.015625)"/>
       </defs>
       <use xlink:href="#SimHei-37"/>
      </g>
     </g>
    </g>
    <g id="xtick_9">
     <g id="line2d_9">
      <path d="M 375.04 307.584 
L 375.04 41.472 
" clip-path="url(#pabaa9d4b3c)" style="fill: none; stroke-dasharray: 2.96,1.28; stroke-dashoffset: 0; stroke: #ffffff; stroke-width: 0.8"/>
     </g>
     <g id="text_9">
      <!-- 8 -->
      <g transform="translate(371.29 321.337906) scale(0.15 -0.15)">
       <defs>
        <path id="SimHei-38" d="M 2875 1325 
Q 2875 700 2525 375 
Q 2175 50 1575 50 
Q 975 50 625 375 
Q 275 700 275 1325 
Q 275 1650 475 1912 
Q 675 2175 1025 2300 
Q 725 2425 562 2650 
Q 400 2875 400 3225 
Q 400 3775 750 4100 
Q 1100 4425 1575 4425 
Q 2050 4425 2400 4100 
Q 2750 3775 2750 3225 
Q 2750 2875 2587 2650 
Q 2425 2425 2125 2300 
Q 2475 2175 2675 1912 
Q 2875 1650 2875 1325 
z
M 2200 3225 
Q 2200 3625 2025 3800 
Q 1850 3975 1575 3975 
Q 1300 3975 1125 3800 
Q 950 3625 950 3225 
Q 950 2825 1137 2662 
Q 1325 2500 1575 2500 
Q 1825 2500 2012 2662 
Q 2200 2825 2200 3225 
z
M 2300 1325 
Q 2300 1675 2112 1875 
Q 1925 2075 1575 2075 
Q 1225 2075 1037 1875 
Q 850 1675 850 1325 
Q 850 925 1050 712 
Q 1250 500 1575 500 
Q 1900 500 2100 712 
Q 2300 925 2300 1325 
z
" transform="scale(0.015625)"/>
       </defs>
       <use xlink:href="#SimHei-38"/>
      </g>
     </g>
    </g>
    <g id="xtick_10">
     <g id="line2d_10">
      <path d="M 414.72 307.584 
L 414.72 41.472 
" clip-path="url(#pabaa9d4b3c)" style="fill: none; stroke-dasharray: 2.96,1.28; stroke-dashoffset: 0; stroke: #ffffff; stroke-width: 0.8"/>
     </g>
     <g id="text_10">
      <!-- 9 -->
      <g transform="translate(410.97 321.337906) scale(0.15 -0.15)">
       <defs>
        <path id="SimHei-39" d="M 2825 2300 
Q 2825 1275 2462 662 
Q 2100 50 1425 50 
Q 950 50 662 400 
Q 375 750 375 1175 
L 950 1175 
Q 950 925 1087 725 
Q 1225 525 1450 525 
Q 1825 525 2012 950 
Q 2200 1375 2250 2200 
Q 2125 1925 1900 1775 
Q 1675 1625 1400 1625 
Q 925 1625 625 1975 
Q 325 2325 325 2975 
Q 325 3625 625 4025 
Q 925 4425 1525 4425 
Q 2125 4425 2475 3925 
Q 2825 3425 2825 2300 
z
M 2200 2875 
Q 2200 3425 2012 3700 
Q 1825 3975 1500 3975 
Q 1275 3975 1100 3762 
Q 925 3550 925 2975 
Q 925 2550 1062 2312 
Q 1200 2075 1500 2075 
Q 1825 2075 2012 2300 
Q 2200 2525 2200 2875 
z
" transform="scale(0.015625)"/>
       </defs>
       <use xlink:href="#SimHei-39"/>
      </g>
     </g>
    </g>
    <g id="text_11">
     <!-- 分片数量 -->
     <g style="fill: #262626" transform="translate(212.16 336.6465) scale(0.12 -0.12)">
      <defs>
       <path id="SimHei-5206" d="M 2900 2150 
Q 2850 1575 2712 1150 
Q 2575 725 2325 425 
Q 2075 125 1750 -100 
Q 1425 -325 1075 -525 
Q 900 -250 625 -75 
Q 1025 75 1325 250 
Q 1625 425 1862 675 
Q 2100 925 2225 1262 
Q 2350 1600 2400 2150 
Q 1850 2150 1575 2125 
L 1575 2600 
Q 1925 2575 2475 2575 
L 4900 2575 
Q 4850 2250 4825 2000 
L 4625 275 
Q 4575 -225 4250 -325 
Q 3925 -425 3525 -500 
Q 3450 -175 3275 125 
Q 3750 125 3925 150 
Q 4100 175 4150 500 
L 4325 2150 
L 2900 2150 
z
M 2375 4925 
Q 2650 4775 2950 4650 
Q 2800 4500 2600 4187 
Q 2400 3875 2137 3512 
Q 1875 3150 1562 2775 
Q 1250 2400 900 2075 
Q 650 2325 350 2475 
Q 775 2750 1087 3050 
Q 1400 3350 1737 3812 
Q 2075 4275 2375 4925 
z
M 3600 4900 
Q 3875 4950 4125 5025 
Q 4200 4700 4387 4337 
Q 4575 3975 4850 3637 
Q 5125 3300 5450 3050 
Q 5775 2800 6100 2700 
Q 5825 2525 5625 2150 
Q 5200 2475 4900 2775 
Q 4600 3075 4412 3325 
Q 4225 3575 3987 4012 
Q 3750 4450 3600 4900 
z
" transform="scale(0.015625)"/>
       <path id="SimHei-7247" d="M 1475 5025 
Q 1725 5000 2075 4975 
Q 2000 4625 2000 3400 
L 3750 3400 
Q 3750 4775 3725 5150 
L 4275 5150 
Q 4250 4775 4250 3400 
Q 5225 3400 5750 3425 
L 5750 2950 
Q 5225 2975 4875 2975 
L 2000 2975 
L 1975 2000 
L 4725 2000 
Q 4700 1425 4700 700 
Q 4700 -25 4725 -650 
L 4175 -650 
Q 4200 -50 4200 1575 
L 1925 1575 
Q 1850 950 1637 350 
Q 1425 -250 1175 -650 
Q 975 -450 600 -350 
Q 1000 150 1187 725 
Q 1375 1300 1437 1950 
Q 1500 2600 1500 3350 
Q 1500 4100 1475 5025 
z
" transform="scale(0.015625)"/>
       <path id="SimHei-6570" d="M 700 4850 
Q 950 4925 1100 5025 
Q 1300 4700 1475 4375 
Q 1250 4275 1075 4175 
Q 925 4550 700 4850 
z
M 2875 5025 
Q 3150 4900 3400 4800 
Q 3250 4700 3150 4525 
Q 3050 4350 2925 4125 
Q 2725 4225 2525 4275 
Q 2725 4600 2875 5025 
z
M 2450 3175 
Q 2675 3275 2825 3425 
Q 3125 3000 3325 2650 
Q 3100 2550 2900 2400 
Q 2700 2875 2450 3175 
z
M 525 3950 
Q 925 3925 1800 3925 
Q 1800 4650 1775 5175 
L 2275 5175 
Q 2250 4650 2250 3925 
Q 3075 3925 3450 3950 
L 3450 3500 
Q 3075 3525 2250 3525 
Q 2250 2950 2275 2525 
L 1775 2525 
Q 1800 2900 1800 3325 
Q 1675 3075 1387 2787 
Q 1100 2500 750 2300 
Q 650 2525 425 2675 
Q 650 2750 987 3000 
Q 1325 3250 1475 3525 
Q 950 3525 525 3500 
L 525 3950 
z
M 1725 1550 
Q 1600 1300 1450 1050 
Q 1750 975 2250 850 
Q 2425 1075 2575 1550 
L 1725 1550 
z
M 1550 2450 
Q 1825 2350 2100 2275 
Q 2000 2175 1875 1950 
L 2850 1950 
L 3125 1950 
Q 2975 1300 2700 725 
Q 3125 600 3375 525 
Q 3175 250 3075 25 
Q 2850 175 2400 350 
Q 1800 -250 600 -650 
Q 500 -400 300 -250 
Q 1375 0 2000 525 
Q 1300 700 850 825 
Q 1000 1025 1250 1550 
Q 850 1550 300 1525 
L 300 1975 
Q 775 1950 1400 1950 
Q 1475 2150 1550 2450 
z
M 4075 5150 
Q 4375 5025 4700 4975 
Q 4575 4825 4512 4625 
Q 4450 4425 4350 4050 
L 5475 4050 
Q 5700 4050 6050 4075 
L 6050 3625 
Q 5775 3650 5600 3650 
Q 5575 3125 5475 2262 
Q 5375 1400 5000 750 
Q 5250 400 5575 175 
Q 5900 -50 6150 -150 
Q 5800 -375 5700 -600 
Q 5275 -300 5075 -87 
Q 4875 125 4700 375 
Q 4400 75 4137 -125 
Q 3875 -325 3300 -650 
Q 3175 -425 2900 -250 
Q 3375 -75 3775 200 
Q 4175 475 4450 775 
Q 4175 1325 4025 1862 
Q 3875 2400 3850 2625 
Q 3800 2450 3725 2225 
Q 3500 2325 3225 2425 
Q 3525 2975 3775 3750 
Q 4025 4525 4075 5150 
z
M 4250 3650 
Q 4150 3400 4100 3237 
Q 4050 3075 4287 2350 
Q 4525 1625 4750 1225 
Q 4975 1825 5062 2475 
Q 5150 3125 5150 3650 
L 4250 3650 
z
" transform="scale(0.015625)"/>
       <path id="SimHei-91cf" d="M 3450 2175 
L 3450 1800 
L 4750 1800 
L 4750 2175 
L 3450 2175 
z
M 3450 1525 
L 3450 1175 
L 4750 1175 
L 4750 1525 
L 3450 1525 
z
M 1675 2175 
L 1675 1800 
L 3000 1800 
L 3000 2175 
L 1675 2175 
z
M 1675 1525 
L 1675 1175 
L 3000 1175 
L 3000 1525 
L 1675 1525 
z
M 1200 2450 
L 5250 2450 
Q 5200 2150 5200 1737 
Q 5200 1325 5250 900 
L 3450 900 
L 3450 500 
L 4600 500 
Q 5000 525 5375 525 
L 5375 175 
Q 5000 225 4600 225 
L 3450 225 
L 3450 -225 
L 5125 -225 
Q 5550 -200 5950 -200 
L 5950 -525 
Q 5550 -500 5125 -500 
L 1300 -500 
Q 900 -500 475 -525 
L 475 -200 
Q 925 -200 1300 -225 
L 3000 -225 
L 3000 225 
L 1750 225 
Q 1375 225 1000 175 
L 1000 525 
Q 1400 525 1750 500 
L 3000 500 
L 3000 900 
L 1200 900 
Q 1225 1300 1225 1712 
Q 1225 2125 1200 2450 
z
M 1675 4775 
L 1675 4350 
L 4750 4350 
L 4750 4775 
L 1675 4775 
z
M 1675 4075 
L 1675 3675 
L 4750 3675 
L 4750 4075 
L 1675 4075 
z
M 1200 5050 
L 5250 5050 
Q 5200 4650 5200 4300 
Q 5200 3950 5250 3400 
L 1200 3400 
Q 1225 3950 1212 4300 
Q 1200 4650 1200 5050 
z
M 475 3150 
Q 1100 3125 1750 3100 
L 4825 3100 
Q 5400 3125 5900 3150 
L 5900 2800 
Q 5400 2825 4850 2825 
L 1750 2825 
Q 1100 2825 475 2800 
L 475 3150 
z
" transform="scale(0.015625)"/>
      </defs>
      <use xlink:href="#SimHei-5206"/>
      <use xlink:href="#SimHei-7247" x="100"/>
      <use xlink:href="#SimHei-6570" x="200"/>
      <use xlink:href="#SimHei-91cf" x="300"/>
     </g>
    </g>
   </g>
   <g id="matplotlib.axis_2">
    <g id="ytick_1">
     <g id="line2d_11">
      <path d="M 57.6 307.584 
L 414.72 307.584 
" clip-path="url(#pabaa9d4b3c)" style="fill: none; stroke-dasharray: 2.96,1.28; stroke-dashoffset: 0; stroke: #ffffff; stroke-width: 0.8"/>
     </g>
     <g id="text_12">
      <!-- 500 -->
      <g transform="translate(31.6 312.710953) scale(0.15 -0.15)">
       <use xlink:href="#SimHei-35"/>
       <use xlink:href="#SimHei-30" x="50"/>
       <use xlink:href="#SimHei-30" x="100"/>
      </g>
     </g>
    </g>
    <g id="ytick_2">
     <g id="line2d_12">
      <path d="M 57.6 263.232 
L 414.72 263.232 
" clip-path="url(#pabaa9d4b3c)" style="fill: none; stroke-dasharray: 2.96,1.28; stroke-dashoffset: 0; stroke: #ffffff; stroke-width: 0.8"/>
     </g>
     <g id="text_13">
      <!-- 1000 -->
      <g transform="translate(24.1 268.358953) scale(0.15 -0.15)">
       <use xlink:href="#SimHei-31"/>
       <use xlink:href="#SimHei-30" x="50"/>
       <use xlink:href="#SimHei-30" x="100"/>
       <use xlink:href="#SimHei-30" x="150"/>
      </g>
     </g>
    </g>
    <g id="ytick_3">
     <g id="line2d_13">
      <path d="M 57.6 218.88 
L 414.72 218.88 
" clip-path="url(#pabaa9d4b3c)" style="fill: none; stroke-dasharray: 2.96,1.28; stroke-dashoffset: 0; stroke: #ffffff; stroke-width: 0.8"/>
     </g>
     <g id="text_14">
      <!-- 1500 -->
      <g transform="translate(24.1 224.006953) scale(0.15 -0.15)">
       <use xlink:href="#SimHei-31"/>
       <use xlink:href="#SimHei-35" x="50"/>
       <use xlink:href="#SimHei-30" x="100"/>
       <use xlink:href="#SimHei-30" x="150"/>
      </g>
     </g>
    </g>
    <g id="ytick_4">
     <g id="line2d_14">
      <path d="M 57.6 174.528 
L 414.72 174.528 
" clip-path="url(#pabaa9d4b3c)" style="fill: none; stroke-dasharray: 2.96,1.28; stroke-dashoffset: 0; stroke: #ffffff; stroke-width: 0.8"/>
     </g>
     <g id="text_15">
      <!-- 2000 -->
      <g transform="translate(24.1 179.654953) scale(0.15 -0.15)">
       <use xlink:href="#SimHei-32"/>
       <use xlink:href="#SimHei-30" x="50"/>
       <use xlink:href="#SimHei-30" x="100"/>
       <use xlink:href="#SimHei-30" x="150"/>
      </g>
     </g>
    </g>
    <g id="ytick_5">
     <g id="line2d_15">
      <path d="M 57.6 130.176 
L 414.72 130.176 
" clip-path="url(#pabaa9d4b3c)" style="fill: none; stroke-dasharray: 2.96,1.28; stroke-dashoffset: 0; stroke: #ffffff; stroke-width: 0.8"/>
     </g>
     <g id="text_16">
      <!-- 2500 -->
      <g transform="translate(24.1 135.302953) scale(0.15 -0.15)">
       <use xlink:href="#SimHei-32"/>
       <use xlink:href="#SimHei-35" x="50"/>
       <use xlink:href="#SimHei-30" x="100"/>
       <use xlink:href="#SimHei-30" x="150"/>
      </g>
     </g>
    </g>
    <g id="ytick_6">
     <g id="line2d_16">
      <path d="M 57.6 85.824 
L 414.72 85.824 
" clip-path="url(#pabaa9d4b3c)" style="fill: none; stroke-dasharray: 2.96,1.28; stroke-dashoffset: 0; stroke: #ffffff; stroke-width: 0.8"/>
     </g>
     <g id="text_17">
      <!-- 3000 -->
      <g transform="translate(24.1 90.950953) scale(0.15 -0.15)">
       <use xlink:href="#SimHei-33"/>
       <use xlink:href="#SimHei-30" x="50"/>
       <use xlink:href="#SimHei-30" x="100"/>
       <use xlink:href="#SimHei-30" x="150"/>
      </g>
     </g>
    </g>
    <g id="ytick_7">
     <g id="line2d_17">
      <path d="M 57.6 41.472 
L 414.72 41.472 
" clip-path="url(#pabaa9d4b3c)" style="fill: none; stroke-dasharray: 2.96,1.28; stroke-dashoffset: 0; stroke: #ffffff; stroke-width: 0.8"/>
     </g>
     <g id="text_18">
      <!-- 3500 -->
      <g transform="translate(24.1 46.598953) scale(0.15 -0.15)">
       <use xlink:href="#SimHei-33"/>
       <use xlink:href="#SimHei-35" x="50"/>
       <use xlink:href="#SimHei-30" x="100"/>
       <use xlink:href="#SimHei-30" x="150"/>
      </g>
     </g>
    </g>
    <g id="text_19">
     <!-- 吞吐量(tps) -->
     <g style="fill: #262626" transform="translate(18.553125 207.528) rotate(-90) scale(0.12 -0.12)">
      <defs>
       <path id="SimHei-541e" d="M 3050 3200 
Q 2650 2400 1950 1875 
L 4700 1875 
Q 4000 2250 3550 3200 
L 3050 3200 
z
M 2075 1450 
L 2075 375 
L 4425 375 
L 4425 1450 
L 2075 1450 
z
M 1175 4925 
Q 1575 4900 2025 4900 
L 4400 4900 
Q 4775 4900 5200 4925 
L 5200 4450 
Q 4775 4475 4400 4475 
L 3300 4475 
Q 3275 4075 3175 3625 
L 4925 3625 
Q 5400 3625 5800 3650 
L 5800 3175 
Q 5425 3200 4925 3200 
L 4050 3200 
Q 4175 2850 4637 2475 
Q 5100 2100 6125 1950 
Q 5925 1775 5825 1425 
Q 5500 1475 4925 1775 
Q 4900 1450 4900 662 
Q 4900 -125 4925 -525 
L 4425 -525 
L 4425 -50 
L 2075 -50 
L 2075 -550 
L 1575 -550 
Q 1600 -175 1600 562 
Q 1600 1300 1600 1600 
Q 1175 1350 800 1175 
Q 725 1400 375 1625 
Q 800 1725 1437 2100 
Q 2075 2475 2525 3200 
L 1350 3200 
Q 975 3200 575 3175 
L 575 3650 
Q 975 3625 1350 3625 
L 2675 3625 
Q 2775 4050 2800 4475 
L 2050 4475 
Q 1575 4475 1175 4450 
L 1175 4925 
z
" transform="scale(0.015625)"/>
       <path id="SimHei-5410" d="M 2825 3200 
Q 3175 3175 3600 3175 
L 4025 3175 
L 4025 4325 
Q 4000 4825 4000 5075 
L 4550 5075 
Q 4500 4800 4500 4325 
L 4500 3175 
L 5000 3175 
Q 5425 3175 5700 3200 
L 5700 2750 
Q 5450 2775 5025 2775 
L 4500 2775 
L 4500 100 
L 5275 100 
Q 5700 100 6050 125 
L 6050 -325 
Q 5725 -300 5300 -300 
L 3350 -300 
Q 2875 -300 2500 -325 
L 2500 125 
Q 2875 100 3350 100 
L 4025 100 
L 4025 2775 
L 3600 2775 
Q 3175 2775 2825 2750 
L 2825 3200 
z
M 1050 3825 
L 1050 1350 
L 1975 1350 
L 1975 3825 
L 1050 3825 
z
M 575 4225 
L 2450 4225 
Q 2425 3750 2425 3250 
L 2425 1225 
Q 2425 775 2450 450 
L 1975 450 
L 1975 950 
L 1050 950 
L 1050 -50 
L 575 -50 
Q 575 425 600 900 
L 600 3250 
Q 575 3750 575 4225 
z
" transform="scale(0.015625)"/>
       <path id="SimHei-28" d="M 3000 -225 
L 2725 -500 
Q 2100 100 1787 750 
Q 1475 1400 1475 2225 
Q 1475 3050 1787 3700 
Q 2100 4350 2725 4975 
L 3000 4700 
Q 2425 4150 2137 3562 
Q 1850 2975 1850 2225 
Q 1850 1475 2137 887 
Q 2425 300 3000 -225 
z
" transform="scale(0.015625)"/>
       <path id="SimHei-74" d="M 2775 175 
Q 2650 125 2487 87 
Q 2325 50 2050 50 
Q 1600 50 1325 300 
Q 1050 550 1050 1000 
L 1050 2500 
L 200 2500 
L 200 2900 
L 1050 2900 
L 1050 3875 
L 1550 3875 
L 1550 2900 
L 2575 2900 
L 2575 2500 
L 1550 2500 
L 1550 975 
Q 1550 775 1650 637 
Q 1750 500 2025 500 
Q 2300 500 2475 550 
Q 2650 600 2775 675 
L 2775 175 
z
" transform="scale(0.015625)"/>
       <path id="SimHei-70" d="M 2850 1500 
Q 2850 775 2500 400 
Q 2150 25 1650 25 
Q 1375 25 1175 137 
Q 975 250 825 475 
L 825 -825 
L 325 -825 
L 325 2900 
L 825 2900 
L 825 2525 
Q 975 2750 1175 2850 
Q 1375 2950 1650 2950 
Q 2150 2950 2500 2587 
Q 2850 2225 2850 1500 
z
M 2300 1500 
Q 2300 1975 2112 2237 
Q 1925 2500 1550 2500 
Q 1250 2500 1037 2237 
Q 825 1975 825 1500 
Q 825 1025 1037 750 
Q 1250 475 1550 475 
Q 1925 475 2112 750 
Q 2300 1025 2300 1500 
z
" transform="scale(0.015625)"/>
       <path id="SimHei-73" d="M 2775 875 
Q 2775 475 2462 262 
Q 2150 50 1675 50 
Q 1075 50 750 287 
Q 425 525 425 975 
L 925 975 
Q 925 675 1137 575 
Q 1350 475 1650 475 
Q 1950 475 2100 587 
Q 2250 700 2250 875 
Q 2250 1000 2125 1125 
Q 2000 1250 1500 1325 
Q 925 1400 712 1612 
Q 500 1825 500 2175 
Q 500 2475 787 2712 
Q 1075 2950 1625 2950 
Q 2125 2950 2412 2725 
Q 2700 2500 2700 2125 
L 2200 2125 
Q 2200 2350 2037 2437 
Q 1875 2525 1625 2525 
Q 1300 2525 1162 2412 
Q 1025 2300 1025 2150 
Q 1025 1975 1150 1875 
Q 1275 1775 1675 1725 
Q 2325 1625 2550 1412 
Q 2775 1200 2775 875 
z
" transform="scale(0.015625)"/>
       <path id="SimHei-29" d="M 1700 2225 
Q 1700 1400 1387 750 
Q 1075 100 450 -500 
L 175 -225 
Q 750 300 1037 887 
Q 1325 1475 1325 2225 
Q 1325 2975 1037 3562 
Q 750 4150 175 4700 
L 450 4975 
Q 1075 4350 1387 3700 
Q 1700 3050 1700 2225 
z
" transform="scale(0.015625)"/>
      </defs>
      <use xlink:href="#SimHei-541e"/>
      <use xlink:href="#SimHei-5410" x="100"/>
      <use xlink:href="#SimHei-91cf" x="200"/>
      <use xlink:href="#SimHei-28" x="300"/>
      <use xlink:href="#SimHei-74" x="350"/>
      <use xlink:href="#SimHei-70" x="400"/>
      <use xlink:href="#SimHei-73" x="450"/>
      <use xlink:href="#SimHei-29" x="500"/>
     </g>
    </g>
   </g>
   <g id="line2d_18">
    <path d="M 97.28 270.112474 
L 176.64 190.447411 
L 256 129.736915 
L 335.36 62.162208 
" clip-path="url(#pabaa9d4b3c)" style="fill: none; stroke: #023eff; stroke-opacity: 0.8; stroke-linecap: round"/>
    <defs>
     <path id="m3db945ecf8" d="M 0 -2.4 
L -2.4 2.4 
L 2.4 2.4 
z
" style="stroke: #000000; stroke-opacity: 0; stroke-width: 0.75; stroke-linejoin: miter"/>
    </defs>
    <g clip-path="url(#pabaa9d4b3c)">
     <use xlink:href="#m3db945ecf8" x="97.28" y="270.112474" style="fill: #023eff; fill-opacity: 0.8; stroke: #000000; stroke-opacity: 0; stroke-width: 0.75; stroke-linejoin: miter"/>
     <use xlink:href="#m3db945ecf8" x="176.64" y="190.447411" style="fill: #023eff; fill-opacity: 0.8; stroke: #000000; stroke-opacity: 0; stroke-width: 0.75; stroke-linejoin: miter"/>
     <use xlink:href="#m3db945ecf8" x="256" y="129.736915" style="fill: #023eff; fill-opacity: 0.8; stroke: #000000; stroke-opacity: 0; stroke-width: 0.75; stroke-linejoin: miter"/>
     <use xlink:href="#m3db945ecf8" x="335.36" y="62.162208" style="fill: #023eff; fill-opacity: 0.8; stroke: #000000; stroke-opacity: 0; stroke-width: 0.75; stroke-linejoin: miter"/>
    </g>
   </g>
   <g id="line2d_19">
    <path d="M 97.28 287.32105 
L 176.64 252.540211 
L 256 198.127699 
L 335.36 135.520416 
" clip-path="url(#pabaa9d4b3c)" style="fill: none; stroke: #ff7c00; stroke-opacity: 0.8; stroke-linecap: round"/>
    <defs>
     <path id="m536c2da862" d="M -0 3.394113 
L 3.394113 0 
L 0 -3.394113 
L -3.394113 -0 
z
" style="stroke: #000000; stroke-opacity: 0; stroke-width: 0.75; stroke-linejoin: miter"/>
    </defs>
    <g clip-path="url(#pabaa9d4b3c)">
     <use xlink:href="#m536c2da862" x="97.28" y="287.32105" style="fill: #ff7c00; fill-opacity: 0.8; stroke: #000000; stroke-opacity: 0; stroke-width: 0.75; stroke-linejoin: miter"/>
     <use xlink:href="#m536c2da862" x="176.64" y="252.540211" style="fill: #ff7c00; fill-opacity: 0.8; stroke: #000000; stroke-opacity: 0; stroke-width: 0.75; stroke-linejoin: miter"/>
     <use xlink:href="#m536c2da862" x="256" y="198.127699" style="fill: #ff7c00; fill-opacity: 0.8; stroke: #000000; stroke-opacity: 0; stroke-width: 0.75; stroke-linejoin: miter"/>
     <use xlink:href="#m536c2da862" x="335.36" y="135.520416" style="fill: #ff7c00; fill-opacity: 0.8; stroke: #000000; stroke-opacity: 0; stroke-width: 0.75; stroke-linejoin: miter"/>
    </g>
   </g>
   <g id="line2d_20">
    <path d="M 97.28 287.409754 
L 176.64 196.683302 
L 256 143.540736 
L 335.36 69.790752 
" clip-path="url(#pabaa9d4b3c)" style="fill: none; stroke: #1ac938; stroke-opacity: 0.8; stroke-linecap: round"/>
    <defs>
     <path id="m84060cb928" d="M -0 2.4 
L 2.4 -2.4 
L -2.4 -2.4 
z
" style="stroke: #000000; stroke-opacity: 0; stroke-width: 0.75; stroke-linejoin: miter"/>
    </defs>
    <g clip-path="url(#pabaa9d4b3c)">
     <use xlink:href="#m84060cb928" x="97.28" y="287.409754" style="fill: #1ac938; fill-opacity: 0.8; stroke: #000000; stroke-opacity: 0; stroke-width: 0.75; stroke-linejoin: miter"/>
     <use xlink:href="#m84060cb928" x="176.64" y="196.683302" style="fill: #1ac938; fill-opacity: 0.8; stroke: #000000; stroke-opacity: 0; stroke-width: 0.75; stroke-linejoin: miter"/>
     <use xlink:href="#m84060cb928" x="256" y="143.540736" style="fill: #1ac938; fill-opacity: 0.8; stroke: #000000; stroke-opacity: 0; stroke-width: 0.75; stroke-linejoin: miter"/>
     <use xlink:href="#m84060cb928" x="335.36" y="69.790752" style="fill: #1ac938; fill-opacity: 0.8; stroke: #000000; stroke-opacity: 0; stroke-width: 0.75; stroke-linejoin: miter"/>
    </g>
   </g>
   <g id="line2d_21"/>
   <g id="line2d_22"/>
   <g id="line2d_23"/>
   <g id="patch_3">
    <path d="M 57.6 307.584 
L 57.6 41.472 
" style="fill: none"/>
   </g>
   <g id="patch_4">
    <path d="M 414.72 307.584 
L 414.72 41.472 
" style="fill: none"/>
   </g>
   <g id="patch_5">
    <path d="M 57.6 307.584 
L 414.72 307.584 
" style="fill: none"/>
   </g>
   <g id="patch_6">
    <path d="M 57.6 41.472 
L 414.72 41.472 
" style="fill: none"/>
   </g>
   <g id="legend_1">
    <g id="patch_7">
     <path d="M 63.76 100.760437 
L 226.92 100.760437 
Q 228.68 100.760437 228.68 99.000437 
L 228.68 47.632 
Q 228.68 45.872 226.92 45.872 
L 63.76 45.872 
Q 62 45.872 62 47.632 
L 62 99.000437 
Q 62 100.760437 63.76 100.760437 
z
" style="fill: #eaeaf2; opacity: 0.8; stroke: #cccccc; stroke-width: 0.8; stroke-linejoin: miter"/>
    </g>
    <g id="text_20">
     <!-- 共识协议 -->
     <g transform="translate(125.34 57.165437) scale(0.1 -0.1)">
      <defs>
       <path id="SimHei-5171" d="M 2400 1075 
Q 2650 850 2950 675 
Q 2600 475 2050 62 
Q 1500 -350 1000 -625 
Q 825 -350 600 -175 
Q 1100 50 1550 350 
Q 2000 650 2400 1075 
z
M 3700 650 
Q 3900 850 4075 1075 
Q 4350 900 4900 537 
Q 5450 175 5875 -175 
Q 5650 -350 5475 -600 
Q 5075 -250 4587 87 
Q 4100 425 3700 650 
z
M 2625 3300 
L 2625 1825 
L 3950 1825 
L 3950 3300 
L 2625 3300 
z
M 850 3750 
Q 1150 3725 1750 3725 
L 2125 3725 
Q 2125 4725 2100 5000 
L 2675 5000 
Q 2625 4725 2625 3725 
L 3950 3725 
Q 3950 4750 3925 5075 
L 4500 5075 
Q 4450 4750 4450 3725 
L 4950 3725 
Q 5375 3725 5675 3750 
L 5675 3275 
Q 5375 3300 4950 3300 
L 4450 3300 
L 4450 1825 
L 5275 1825 
Q 5725 1825 6000 1850 
L 6000 1375 
Q 5750 1400 5300 1400 
L 1200 1400 
Q 750 1400 475 1375 
L 475 1850 
Q 750 1825 1200 1825 
L 2125 1825 
L 2125 3300 
L 1700 3300 
Q 1125 3300 850 3275 
L 850 3750 
z
" transform="scale(0.015625)"/>
       <path id="SimHei-8bc6" d="M 2700 4800 
L 5550 4800 
Q 5525 4350 5525 3325 
Q 5525 2300 5550 1850 
L 2700 1850 
Q 2725 2275 2725 3312 
Q 2725 4350 2700 4800 
z
M 3200 4375 
L 3200 2275 
L 5050 2275 
L 5050 4375 
L 3200 4375 
z
M 3325 1375 
Q 3625 1225 3900 1100 
Q 3600 825 3250 400 
Q 2900 -25 2450 -525 
Q 2300 -350 2025 -175 
Q 3025 750 3325 1375 
z
M 4375 1050 
Q 4650 1200 4800 1375 
Q 5725 400 6075 -50 
Q 5825 -200 5650 -375 
Q 4725 750 4375 1050 
z
M 800 4650 
Q 1000 4775 1200 4950 
Q 1750 4375 1950 4050 
Q 1725 3900 1525 3725 
Q 1075 4400 800 4650 
z
M 350 3225 
Q 650 3200 1000 3200 
L 1700 3200 
Q 1675 2750 1675 2200 
L 1675 850 
Q 1925 1100 2200 1425 
Q 2300 1225 2475 950 
Q 2125 650 1862 362 
Q 1600 75 1350 -225 
Q 1175 25 925 175 
Q 1200 375 1200 650 
L 1200 2775 
Q 675 2775 350 2750 
L 350 3225 
z
" transform="scale(0.015625)"/>
       <path id="SimHei-534f" d="M 350 3475 
Q 625 3450 1125 3450 
Q 1125 4650 1100 5050 
L 1600 5050 
Q 1575 4650 1575 3450 
Q 2025 3450 2350 3475 
L 2350 3025 
Q 2025 3050 1575 3050 
L 1575 300 
Q 1575 -50 1600 -600 
L 1100 -600 
Q 1125 -50 1125 300 
L 1125 3050 
Q 625 3050 350 3025 
L 350 3475 
z
M 2525 3825 
Q 2975 3800 3475 3800 
Q 3475 4600 3450 5125 
Q 3700 5050 4025 5025 
Q 3925 4625 3950 3800 
L 5250 3800 
Q 5200 3575 5175 3050 
L 5000 275 
Q 4950 -125 4700 -212 
Q 4450 -300 4025 -400 
Q 3925 -75 3800 150 
Q 4325 175 4425 200 
Q 4525 225 4550 550 
L 4725 3400 
L 3925 3400 
Q 3900 2275 3587 1275 
Q 3275 275 2500 -525 
Q 2350 -325 1925 -175 
Q 2475 125 2937 1050 
Q 3400 1975 3450 3400 
Q 2975 3400 2525 3375 
L 2525 3825 
z
M 2450 2600 
Q 2650 2525 2975 2475 
Q 2825 2275 2525 1200 
Q 2275 1300 2050 1325 
Q 2400 2250 2450 2600 
z
M 5225 2450 
Q 5450 2525 5650 2650 
Q 6000 1850 6100 1475 
Q 5850 1425 5650 1300 
Q 5500 1825 5225 2450 
z
" transform="scale(0.015625)"/>
       <path id="SimHei-8bae" d="M 2475 4000 
Q 2725 4025 3025 4100 
Q 3075 3550 3175 3137 
Q 3275 2725 3475 2300 
Q 3675 1875 4050 1350 
Q 4350 1900 4487 2400 
Q 4625 2900 4712 3375 
Q 4800 3850 4875 4475 
Q 5175 4400 5550 4350 
Q 5400 4125 5350 3925 
Q 5300 3725 5225 3337 
Q 5150 2950 5000 2362 
Q 4850 1775 4425 950 
Q 4800 550 5200 362 
Q 5600 175 6175 25 
Q 5900 -175 5725 -550 
Q 5075 -200 4787 -25 
Q 4500 150 4075 550 
Q 3625 75 3287 -162 
Q 2950 -400 2550 -675 
Q 2325 -475 2000 -225 
Q 2525 -50 2975 250 
Q 3425 550 3700 925 
Q 3250 1525 3025 2050 
Q 2800 2575 2687 3012 
Q 2575 3450 2475 4000 
z
M 3375 4875 
Q 3600 4950 3875 5000 
Q 4150 3875 4300 3125 
Q 4000 3100 3800 3025 
Q 3650 3900 3375 4875 
z
M 950 4675 
Q 1175 4775 1375 4925 
Q 1750 4275 1950 3900 
Q 1725 3800 1500 3650 
Q 1100 4475 950 4675 
z
M 2750 1000 
Q 2375 650 2000 275 
Q 1625 -100 1325 -525 
Q 1150 -300 900 -75 
Q 1250 150 1250 500 
L 1250 2625 
L 925 2625 
Q 675 2625 375 2600 
L 375 3075 
Q 675 3050 925 3050 
L 1750 3050 
Q 1725 2625 1725 2100 
L 1725 650 
Q 1975 900 2425 1425 
Q 2525 1275 2750 1000 
z
" transform="scale(0.015625)"/>
      </defs>
      <use xlink:href="#SimHei-5171"/>
      <use xlink:href="#SimHei-8bc6" x="100"/>
      <use xlink:href="#SimHei-534f" x="200"/>
      <use xlink:href="#SimHei-8bae" x="300"/>
     </g>
    </g>
    <g id="line2d_24">
     <path d="M 65.52 66.688562 
L 74.32 66.688562 
L 83.12 66.688562 
" style="fill: none; stroke: #023eff; stroke-width: 1.2; stroke-linecap: round"/>
     <defs>
      <path id="m737984f5a5" d="M 0 -2.4 
L -2.4 2.4 
L 2.4 2.4 
z
" style="stroke: #023eff; stroke-linejoin: miter"/>
     </defs>
     <g>
      <use xlink:href="#m737984f5a5" x="74.32" y="66.688562" style="fill: #023eff; stroke: #023eff; stroke-linejoin: miter"/>
     </g>
    </g>
    <g id="text_21">
     <!-- Sync-HotStuff-b800 -->
     <g transform="translate(90.16 69.768562) scale(0.1 -0.1)">
      <defs>
       <path id="SimHei-53" d="M 2925 1300 
Q 2925 725 2562 387 
Q 2200 50 1575 50 
Q 950 50 600 400 
Q 250 750 250 1275 
L 250 1450 
L 825 1450 
L 825 1300 
Q 825 925 1050 725 
Q 1275 525 1575 525 
Q 1975 525 2162 737 
Q 2350 950 2350 1250 
Q 2350 1500 2125 1712 
Q 1900 1925 1475 2100 
Q 875 2325 612 2600 
Q 350 2875 350 3250 
Q 350 3775 712 4100 
Q 1075 4425 1575 4425 
Q 2225 4425 2512 4037 
Q 2800 3650 2800 3200 
L 2225 3200 
Q 2250 3475 2075 3700 
Q 1900 3925 1575 3925 
Q 1275 3925 1100 3762 
Q 925 3600 925 3325 
Q 925 3100 1062 2937 
Q 1200 2775 1775 2550 
Q 2325 2325 2625 2012 
Q 2925 1700 2925 1300 
z
" transform="scale(0.015625)"/>
       <path id="SimHei-79" d="M 2925 2900 
L 1775 -125 
Q 1675 -475 1475 -650 
Q 1275 -825 975 -825 
Q 850 -825 737 -812 
Q 625 -800 525 -750 
L 525 -250 
Q 625 -300 725 -325 
Q 825 -350 900 -350 
Q 1100 -350 1175 -287 
Q 1250 -225 1325 0 
L 225 2900 
L 775 2900 
L 1575 700 
L 1600 700 
L 2375 2900 
L 2925 2900 
z
" transform="scale(0.015625)"/>
       <path id="SimHei-6e" d="M 2825 100 
L 2325 100 
L 2325 1900 
Q 2325 2200 2175 2375 
Q 2025 2550 1775 2550 
Q 1450 2550 1162 2212 
Q 875 1875 875 1375 
L 875 100 
L 375 100 
L 375 2900 
L 875 2900 
L 875 2375 
Q 1075 2650 1312 2800 
Q 1550 2950 1925 2950 
Q 2375 2950 2600 2700 
Q 2825 2450 2825 2075 
L 2825 100 
z
" transform="scale(0.015625)"/>
       <path id="SimHei-63" d="M 2875 1225 
Q 2875 700 2512 375 
Q 2150 50 1600 50 
Q 1050 50 650 437 
Q 250 825 250 1500 
Q 250 2175 650 2562 
Q 1050 2950 1600 2950 
Q 2150 2950 2475 2662 
Q 2800 2375 2800 1975 
L 2250 1975 
Q 2225 2275 2037 2387 
Q 1850 2500 1600 2500 
Q 1300 2500 1050 2262 
Q 800 2025 800 1500 
Q 800 975 1050 737 
Q 1300 500 1600 500 
Q 1925 500 2125 675 
Q 2325 850 2325 1225 
L 2875 1225 
z
" transform="scale(0.015625)"/>
       <path id="SimHei-2d" d="M 3000 2100 
L 150 2100 
L 150 2500 
L 3000 2500 
L 3000 2100 
z
" transform="scale(0.015625)"/>
       <path id="SimHei-48" d="M 2875 100 
L 2300 100 
L 2300 2100 
L 875 2100 
L 875 100 
L 300 100 
L 300 4375 
L 875 4375 
L 875 2575 
L 2300 2575 
L 2300 4375 
L 2875 4375 
L 2875 100 
z
" transform="scale(0.015625)"/>
       <path id="SimHei-6f" d="M 2950 1500 
Q 2950 850 2550 450 
Q 2150 50 1600 50 
Q 1050 50 650 450 
Q 250 850 250 1500 
Q 250 2150 650 2550 
Q 1050 2950 1600 2950 
Q 2150 2950 2550 2550 
Q 2950 2150 2950 1500 
z
M 2400 1500 
Q 2400 2000 2150 2250 
Q 1900 2500 1600 2500 
Q 1300 2500 1050 2250 
Q 800 2000 800 1500 
Q 800 1000 1050 750 
Q 1300 500 1600 500 
Q 1900 500 2150 750 
Q 2400 1000 2400 1500 
z
" transform="scale(0.015625)"/>
       <path id="SimHei-75" d="M 2825 100 
L 2325 100 
L 2325 625 
Q 2125 350 1887 200 
Q 1650 50 1275 50 
Q 825 50 600 300 
Q 375 550 375 925 
L 375 2900 
L 875 2900 
L 875 1100 
Q 875 800 1025 625 
Q 1175 450 1425 450 
Q 1750 450 2037 787 
Q 2325 1125 2325 1625 
L 2325 2900 
L 2825 2900 
L 2825 100 
z
" transform="scale(0.015625)"/>
       <path id="SimHei-66" d="M 2875 3800 
Q 2750 3875 2575 3925 
Q 2400 3975 2125 3975 
Q 1850 3975 1750 3837 
Q 1650 3700 1650 3500 
L 1650 2900 
L 2675 2900 
L 2675 2500 
L 1650 2500 
L 1650 100 
L 1150 100 
L 1150 2500 
L 300 2500 
L 300 2900 
L 1150 2900 
L 1150 3475 
Q 1150 3925 1425 4175 
Q 1700 4425 2150 4425 
Q 2425 4425 2587 4387 
Q 2750 4350 2875 4300 
L 2875 3800 
z
" transform="scale(0.015625)"/>
       <path id="SimHei-62" d="M 2850 1500 
Q 2850 775 2500 412 
Q 2150 50 1650 50 
Q 1375 50 1175 150 
Q 975 250 825 475 
L 825 100 
L 325 100 
L 325 4375 
L 825 4375 
L 825 2525 
Q 975 2750 1175 2862 
Q 1375 2975 1650 2975 
Q 2150 2975 2500 2600 
Q 2850 2225 2850 1500 
z
M 2300 1500 
Q 2300 1975 2112 2250 
Q 1925 2525 1550 2525 
Q 1250 2525 1037 2250 
Q 825 1975 825 1500 
Q 825 1025 1037 762 
Q 1250 500 1550 500 
Q 1925 500 2112 762 
Q 2300 1025 2300 1500 
z
" transform="scale(0.015625)"/>
      </defs>
      <use xlink:href="#SimHei-53"/>
      <use xlink:href="#SimHei-79" x="50"/>
      <use xlink:href="#SimHei-6e" x="100"/>
      <use xlink:href="#SimHei-63" x="150"/>
      <use xlink:href="#SimHei-2d" x="200"/>
      <use xlink:href="#SimHei-48" x="250"/>
      <use xlink:href="#SimHei-6f" x="300"/>
      <use xlink:href="#SimHei-74" x="350"/>
      <use xlink:href="#SimHei-53" x="400"/>
      <use xlink:href="#SimHei-74" x="450"/>
      <use xlink:href="#SimHei-75" x="500"/>
      <use xlink:href="#SimHei-66" x="550"/>
      <use xlink:href="#SimHei-66" x="600"/>
      <use xlink:href="#SimHei-2d" x="650"/>
      <use xlink:href="#SimHei-62" x="700"/>
      <use xlink:href="#SimHei-38" x="750"/>
      <use xlink:href="#SimHei-30" x="800"/>
      <use xlink:href="#SimHei-30" x="850"/>
     </g>
    </g>
    <g id="line2d_25">
     <path d="M 65.52 79.291687 
L 74.32 79.291687 
L 83.12 79.291687 
" style="fill: none; stroke: #ff7c00; stroke-width: 1.2; stroke-linecap: round"/>
     <defs>
      <path id="mcdd9915fa4" d="M -0 3.394113 
L 3.394113 0 
L 0 -3.394113 
L -3.394113 -0 
z
" style="stroke: #ff7c00; stroke-linejoin: miter"/>
     </defs>
     <g>
      <use xlink:href="#mcdd9915fa4" x="74.32" y="79.291687" style="fill: #ff7c00; stroke: #ff7c00; stroke-linejoin: miter"/>
     </g>
    </g>
    <g id="text_22">
     <!-- Reputation-based-SMR-b800 -->
     <g transform="translate(90.16 82.371687) scale(0.1 -0.1)">
      <defs>
       <path id="SimHei-52" d="M 3025 100 
L 2425 100 
L 1525 1950 
L 875 1950 
L 875 100 
L 300 100 
L 300 4375 
L 1550 4375 
Q 2150 4375 2525 4087 
Q 2900 3800 2900 3150 
Q 2900 2650 2650 2375 
Q 2400 2100 2075 2025 
L 3025 100 
z
M 2325 3150 
Q 2325 3500 2112 3700 
Q 1900 3900 1425 3900 
L 875 3900 
L 875 2425 
L 1575 2425 
Q 1875 2425 2100 2587 
Q 2325 2750 2325 3150 
z
" transform="scale(0.015625)"/>
       <path id="SimHei-65" d="M 2875 1050 
Q 2825 600 2475 325 
Q 2125 50 1650 50 
Q 1050 50 662 437 
Q 275 825 275 1500 
Q 275 2175 662 2562 
Q 1050 2950 1650 2950 
Q 2175 2950 2512 2612 
Q 2850 2275 2850 1500 
L 825 1500 
Q 825 950 1062 725 
Q 1300 500 1650 500 
Q 1925 500 2100 637 
Q 2275 775 2325 1050 
L 2875 1050 
z
M 2275 1900 
Q 2225 2250 2050 2387 
Q 1875 2525 1600 2525 
Q 1350 2525 1150 2387 
Q 950 2250 850 1900 
L 2275 1900 
z
" transform="scale(0.015625)"/>
       <path id="SimHei-61" d="M 2900 100 
L 2300 100 
Q 2250 150 2225 237 
Q 2200 325 2200 450 
Q 2025 250 1775 150 
Q 1525 50 1250 50 
Q 850 50 575 250 
Q 300 450 300 825 
Q 300 1200 550 1425 
Q 800 1650 1325 1725 
Q 1675 1775 1937 1850 
Q 2200 1925 2200 2050 
Q 2200 2200 2087 2350 
Q 1975 2500 1600 2500 
Q 1300 2500 1162 2387 
Q 1025 2275 975 2075 
L 425 2075 
Q 475 2475 787 2712 
Q 1100 2950 1600 2950 
Q 2150 2950 2425 2700 
Q 2700 2450 2700 2000 
L 2700 625 
Q 2700 475 2750 350 
Q 2800 225 2900 100 
z
M 2200 1025 
L 2200 1525 
Q 2050 1475 1912 1437 
Q 1775 1400 1450 1350 
Q 1075 1300 962 1175 
Q 850 1050 850 875 
Q 850 725 962 612 
Q 1075 500 1300 500 
Q 1525 500 1787 625 
Q 2050 750 2200 1025 
z
" transform="scale(0.015625)"/>
       <path id="SimHei-69" d="M 1825 3700 
L 1325 3700 
L 1325 4350 
L 1825 4350 
L 1825 3700 
z
M 1825 100 
L 1325 100 
L 1325 2900 
L 1825 2900 
L 1825 100 
z
" transform="scale(0.015625)"/>
       <path id="SimHei-64" d="M 2775 100 
L 2275 100 
L 2275 475 
Q 2125 250 1925 150 
Q 1725 50 1450 50 
Q 950 50 600 412 
Q 250 775 250 1500 
Q 250 2225 600 2600 
Q 950 2975 1450 2975 
Q 1725 2975 1925 2862 
Q 2125 2750 2275 2525 
L 2275 4375 
L 2775 4375 
L 2775 100 
z
M 2275 1500 
Q 2275 1975 2062 2250 
Q 1850 2525 1550 2525 
Q 1175 2525 987 2250 
Q 800 1975 800 1500 
Q 800 1025 987 762 
Q 1175 500 1550 500 
Q 1850 500 2062 762 
Q 2275 1025 2275 1500 
z
" transform="scale(0.015625)"/>
       <path id="SimHei-4d" d="M 2950 100 
L 2450 100 
L 2450 3150 
L 2400 3150 
L 1800 100 
L 1400 100 
L 800 3150 
L 750 3150 
L 750 100 
L 250 100 
L 250 4375 
L 1025 4375 
L 1575 1550 
L 1625 1550 
L 2175 4375 
L 2950 4375 
L 2950 100 
z
" transform="scale(0.015625)"/>
      </defs>
      <use xlink:href="#SimHei-52"/>
      <use xlink:href="#SimHei-65" x="50"/>
      <use xlink:href="#SimHei-70" x="100"/>
      <use xlink:href="#SimHei-75" x="150"/>
      <use xlink:href="#SimHei-74" x="200"/>
      <use xlink:href="#SimHei-61" x="250"/>
      <use xlink:href="#SimHei-74" x="300"/>
      <use xlink:href="#SimHei-69" x="350"/>
      <use xlink:href="#SimHei-6f" x="400"/>
      <use xlink:href="#SimHei-6e" x="450"/>
      <use xlink:href="#SimHei-2d" x="500"/>
      <use xlink:href="#SimHei-62" x="550"/>
      <use xlink:href="#SimHei-61" x="600"/>
      <use xlink:href="#SimHei-73" x="650"/>
      <use xlink:href="#SimHei-65" x="700"/>
      <use xlink:href="#SimHei-64" x="750"/>
      <use xlink:href="#SimHei-2d" x="800"/>
      <use xlink:href="#SimHei-53" x="850"/>
      <use xlink:href="#SimHei-4d" x="900"/>
      <use xlink:href="#SimHei-52" x="950"/>
      <use xlink:href="#SimHei-2d" x="1000"/>
      <use xlink:href="#SimHei-62" x="1050"/>
      <use xlink:href="#SimHei-38" x="1100"/>
      <use xlink:href="#SimHei-30" x="1150"/>
      <use xlink:href="#SimHei-30" x="1200"/>
     </g>
    </g>
    <g id="line2d_26">
     <path d="M 65.52 92.871375 
L 74.32 92.871375 
L 83.12 92.871375 
" style="fill: none; stroke: #1ac938; stroke-width: 1.2; stroke-linecap: round"/>
     <defs>
      <path id="m053975a980" d="M -0 2.4 
L 2.4 -2.4 
L -2.4 -2.4 
z
" style="stroke: #1ac938; stroke-linejoin: miter"/>
     </defs>
     <g>
      <use xlink:href="#m053975a980" x="74.32" y="92.871375" style="fill: #1ac938; stroke: #1ac938; stroke-linejoin: miter"/>
     </g>
    </g>
    <g id="text_23">
     <!-- 基于声誉的片内共识协议-b800 -->
     <g transform="translate(90.16 95.951375) scale(0.1 -0.1)">
      <defs>
       <path id="SimHei-57fa" d="M 1800 1000 
Q 2125 975 2500 975 
L 2950 975 
Q 2950 1300 2925 1650 
L 3450 1650 
Q 3425 1375 3425 975 
L 3900 975 
Q 4250 975 4550 1000 
L 4550 575 
Q 4250 600 3875 600 
L 3425 600 
L 3425 25 
L 4475 25 
Q 5050 25 5500 50 
L 5500 -375 
Q 5050 -350 4475 -350 
L 1825 -350 
Q 1325 -350 900 -375 
L 900 50 
Q 1300 25 1825 25 
L 2950 25 
L 2950 600 
L 2550 600 
Q 2125 600 1800 575 
L 1800 1000 
z
M 825 4600 
Q 1200 4575 1625 4575 
L 1800 4575 
Q 1800 4925 1775 5200 
L 2300 5200 
Q 2275 4900 2275 4575 
L 4075 4575 
Q 4075 4925 4050 5200 
L 4575 5200 
Q 4550 4900 4550 4575 
L 4925 4575 
Q 5200 4575 5625 4600 
L 5625 4200 
Q 5200 4225 4925 4225 
L 4550 4225 
L 4550 2300 
L 5075 2300 
Q 5575 2300 6000 2325 
L 6000 1900 
Q 5600 1925 5100 1925 
L 4475 1925 
Q 4825 1525 5200 1337 
Q 5575 1150 6150 975 
Q 5875 725 5750 525 
Q 5150 750 4700 1125 
Q 4250 1500 3950 1925 
L 2525 1925 
Q 2225 1425 1750 1087 
Q 1275 750 625 475 
Q 500 700 300 900 
Q 725 1000 1237 1287 
Q 1750 1575 1975 1925 
L 1325 1925 
Q 900 1925 425 1900 
L 425 2325 
Q 900 2300 1325 2300 
L 1800 2300 
L 1800 4225 
Q 1200 4225 825 4200 
L 825 4600 
z
M 2275 4225 
L 2275 3825 
L 4075 3825 
L 4075 4225 
L 2275 4225 
z
M 2275 3450 
L 2275 3075 
L 4075 3075 
L 4075 3450 
L 2275 3450 
z
M 2275 2725 
L 2275 2300 
L 4075 2300 
L 4075 2725 
L 2275 2725 
z
" transform="scale(0.015625)"/>
       <path id="SimHei-4e8e" d="M 2150 125 
Q 2525 100 2725 100 
Q 2925 100 2925 350 
L 2925 2275 
L 1325 2275 
Q 850 2275 500 2250 
L 500 2725 
Q 850 2700 1325 2700 
L 2925 2700 
L 2925 4375 
L 1800 4375 
Q 1400 4375 1075 4350 
L 1075 4825 
Q 1400 4800 1800 4800 
L 4425 4800 
Q 4825 4800 5225 4825 
L 5225 4350 
Q 4825 4375 4425 4375 
L 3425 4375 
L 3425 2700 
L 4925 2700 
Q 5450 2700 5850 2725 
L 5850 2250 
Q 5475 2275 4925 2275 
L 3425 2275 
L 3425 150 
Q 3425 -275 3137 -362 
Q 2850 -450 2375 -475 
Q 2325 -150 2150 125 
z
" transform="scale(0.015625)"/>
       <path id="SimHei-58f0" d="M 3450 2350 
L 3450 1425 
L 4775 1425 
L 4775 2350 
L 3450 2350 
z
M 475 4650 
Q 900 4625 1475 4625 
L 2950 4625 
Q 2950 5000 2925 5150 
L 3475 5150 
Q 3450 5000 3450 4625 
L 4900 4625 
Q 5425 4625 5875 4650 
L 5875 4200 
Q 5425 4225 4900 4225 
L 3450 4225 
L 3450 3600 
L 4375 3600 
Q 4900 3600 5400 3625 
L 5400 3175 
Q 4900 3200 4375 3200 
L 1900 3200 
Q 1375 3200 1000 3175 
L 1000 3625 
Q 1400 3600 1875 3600 
L 2950 3600 
L 2950 4225 
L 1475 4225 
Q 875 4225 475 4200 
L 475 4650 
z
M 1100 2750 
L 5300 2750 
Q 5275 2450 5275 1762 
Q 5275 1075 5300 700 
L 4775 700 
L 4775 1025 
L 1575 1025 
Q 1525 650 1350 262 
Q 1175 -125 775 -650 
Q 575 -400 300 -300 
Q 600 0 775 300 
Q 950 600 1037 950 
Q 1125 1300 1125 1750 
Q 1125 2200 1100 2750 
z
M 1650 2350 
L 1650 1425 
L 2950 1425 
L 2950 2350 
L 1650 2350 
z
" transform="scale(0.015625)"/>
       <path id="SimHei-8a89" d="M 2075 4400 
Q 1900 4275 1700 4125 
Q 1525 4400 1200 4725 
Q 1300 4875 1500 5025 
Q 1800 4725 2075 4400 
z
M 2775 4950 
Q 2950 5050 3175 5125 
Q 3350 4775 3500 4375 
Q 3275 4275 3075 4175 
Q 2925 4575 2775 4950 
z
M 6075 2425 
Q 5825 2200 5700 1925 
Q 5150 2200 4825 2450 
L 1675 2450 
Q 1300 2100 725 1725 
Q 600 1900 325 2100 
Q 875 2350 1312 2700 
Q 1750 3050 2150 3625 
Q 1000 3625 500 3600 
L 500 3975 
Q 1000 3950 1375 3950 
L 4050 3950 
Q 4475 4750 4575 5150 
L 5175 4900 
Q 5025 4800 4862 4562 
Q 4700 4325 4500 3950 
Q 5450 3950 5900 3975 
L 5900 3600 
Q 5450 3625 4225 3625 
Q 4500 3250 4925 2937 
Q 5350 2625 6075 2425 
z
M 3050 2775 
Q 2975 3000 2925 3200 
Q 3175 3275 3400 3300 
Q 3475 3050 3525 2775 
L 4450 2775 
Q 4025 3200 3800 3625 
L 2650 3625 
Q 2375 3200 2000 2775 
L 3050 2775 
z
M 1475 2175 
Q 1875 2150 2200 2150 
L 3975 2150 
Q 4275 2150 4775 2175 
L 4775 1800 
Q 4275 1825 3975 1825 
L 2200 1825 
Q 1850 1825 1475 1800 
L 1475 2175 
z
M 1475 1525 
Q 1900 1500 2225 1500 
L 4000 1500 
Q 4575 1500 4775 1525 
L 4775 1150 
Q 4325 1175 4000 1175 
L 2225 1175 
Q 1900 1175 1475 1150 
L 1475 1525 
z
M 1850 525 
L 1850 100 
L 4550 100 
L 4550 525 
L 1850 525 
z
M 1350 850 
L 5050 850 
Q 5025 550 5025 200 
Q 5025 -150 5050 -575 
L 4550 -575 
L 4550 -225 
L 1850 -225 
L 1850 -625 
L 1350 -625 
Q 1350 -225 1350 150 
Q 1350 525 1350 850 
z
" transform="scale(0.015625)"/>
       <path id="SimHei-7684" d="M 1525 5100 
Q 1850 5025 2200 4925 
Q 2100 4775 2025 4487 
Q 1950 4200 1900 3975 
L 2975 3975 
Q 2950 3525 2950 2900 
L 2950 700 
Q 2950 300 2975 -225 
L 2500 -225 
L 2500 300 
L 1200 300 
L 1200 -275 
L 725 -275 
Q 750 350 750 650 
L 750 2875 
Q 750 3525 725 3975 
L 1425 3975 
Q 1450 4225 1475 4462 
Q 1500 4700 1525 5100 
z
M 1200 3525 
L 1200 2425 
L 2500 2425 
L 2500 3525 
L 1200 3525 
z
M 1200 1950 
L 1200 775 
L 2500 775 
L 2500 1950 
L 1200 1950 
z
M 5850 3925 
Q 5800 3450 5775 3000 
L 5600 175 
Q 5525 -275 5150 -400 
Q 4775 -525 4350 -550 
Q 4350 -275 4175 25 
Q 4600 0 4850 37 
Q 5100 75 5150 350 
L 5350 3475 
L 4025 3475 
Q 3825 3050 3550 2525 
Q 3350 2675 3125 2775 
Q 3275 3000 3462 3400 
Q 3650 3800 3787 4262 
Q 3925 4725 3975 5025 
Q 4300 4875 4600 4800 
Q 4475 4600 4375 4387 
Q 4275 4175 4200 3925 
L 5850 3925 
z
M 3650 2300 
Q 3825 2400 4075 2550 
Q 4200 2325 4325 2050 
Q 4450 1775 4600 1375 
Q 4400 1300 4150 1150 
Q 4075 1425 3937 1750 
Q 3800 2075 3650 2300 
z
" transform="scale(0.015625)"/>
       <path id="SimHei-5185" d="M 2125 925 
Q 1925 1125 1600 1250 
Q 2375 1900 2650 2387 
Q 2925 2875 2950 3700 
L 1425 3700 
L 1425 -550 
L 900 -550 
Q 950 -50 950 300 
L 950 3075 
Q 950 3575 925 4100 
L 2975 4100 
Q 2975 4800 2950 5125 
Q 3325 5100 3550 5100 
Q 3450 4775 3450 4100 
L 5575 4100 
Q 5525 3600 5525 3075 
L 5525 -25 
Q 5550 -350 5250 -450 
Q 4950 -550 4450 -625 
Q 4400 -350 4200 -25 
Q 4725 -50 4887 -25 
Q 5050 0 5050 225 
L 5050 3700 
L 3425 3700 
Q 3400 3350 3350 2825 
Q 3550 2625 4087 2187 
Q 4625 1750 4825 1525 
Q 4600 1325 4425 1125 
Q 4075 1575 3200 2375 
Q 2675 1425 2125 925 
z
" transform="scale(0.015625)"/>
      </defs>
      <use xlink:href="#SimHei-57fa"/>
      <use xlink:href="#SimHei-4e8e" x="100"/>
      <use xlink:href="#SimHei-58f0" x="200"/>
      <use xlink:href="#SimHei-8a89" x="300"/>
      <use xlink:href="#SimHei-7684" x="400"/>
      <use xlink:href="#SimHei-7247" x="500"/>
      <use xlink:href="#SimHei-5185" x="600"/>
      <use xlink:href="#SimHei-5171" x="700"/>
      <use xlink:href="#SimHei-8bc6" x="800"/>
      <use xlink:href="#SimHei-534f" x="900"/>
      <use xlink:href="#SimHei-8bae" x="1000"/>
      <use xlink:href="#SimHei-2d" x="1100"/>
      <use xlink:href="#SimHei-62" x="1150"/>
      <use xlink:href="#SimHei-38" x="1200"/>
      <use xlink:href="#SimHei-30" x="1250"/>
      <use xlink:href="#SimHei-30" x="1300"/>
     </g>
    </g>
   </g>
  </g>
 </g>
 <defs>
  <clipPath id="pabaa9d4b3c">
   <rect x="57.6" y="41.472" width="357.12" height="266.112"/>
  </clipPath>
 </defs>
</svg>
